<svg width="160" height="160" viewBox="0 0 160 160" fill="none" xmlns="http://www.w3.org/2000/svg">
<g clip-path="url(#clip0)">
<path d="M116.186 104.378L86.6343 121.651L37.8083 73.7489L54.5129 43.8727C55.1331 44.2924 55.8345 44.577 56.5717 44.7083C57.3089 44.8396 58.0654 44.8146 58.7923 44.6349L64.906 69.2778L97.6492 58.1508C97.908 58.9482 98.3557 59.6713 98.9541 60.2584C99.5526 60.8455 100.284 61.2793 101.086 61.5229L90.5868 94.4727L115.342 100.114C115.176 100.845 115.166 101.602 115.311 102.336C115.456 103.071 115.754 103.766 116.186 104.378Z" fill="#FCD462"/>
<path d="M90.5664 94.2806L86.5453 93.6659L97.7795 58.4948C98.0397 59.1607 98.4398 59.763 98.9527 60.261C99.5509 60.8484 100.282 61.2822 101.085 61.5255L90.5664 94.2806Z" fill="#F7BE56"/>
<path d="M116.184 104.381L86.6367 121.656L84.2156 119.281L115.211 101.114C115.168 102.281 115.51 103.428 116.184 104.381Z" fill="#F7BE56"/>
<path d="M37.8101 73.7461L86.6372 121.649L78.4276 130.017L29.6005 82.114L37.8101 73.7461Z" fill="#F7BE56"/>
<path d="M77.8963 130.56L29.0702 82.6577C28.9269 82.5171 28.8453 82.3253 28.8434 82.1246C28.8415 81.9238 28.9194 81.7305 29.06 81.5871L37.2706 73.2182C37.4112 73.0748 37.603 72.9932 37.8038 72.9913C38.0046 72.9894 38.1979 73.0673 38.3412 73.2079L87.1672 121.11C87.3106 121.251 87.3922 121.442 87.3941 121.643C87.396 121.844 87.3181 122.037 87.1775 122.181L78.9669 130.549C78.8263 130.693 78.6345 130.774 78.4337 130.776C78.2329 130.778 78.0396 130.7 77.8963 130.56ZM30.67 82.106L78.4162 128.949L85.5664 121.661L37.8212 74.819L30.67 82.106Z" fill="#323C6B"/>
<path d="M53.7521 43.2626C55.8593 45.3299 59.2434 45.2976 61.3107 43.1904C63.378 41.0832 63.3456 37.6991 61.2385 35.6318C59.1313 33.5645 55.7472 33.5969 53.6799 35.7041C51.6126 37.8112 51.645 41.1953 53.7521 43.2626Z" fill="#E1E6E9"/>
<path d="M116.811 105.128C118.918 107.195 122.302 107.163 124.369 105.056C126.437 102.948 126.404 99.5644 124.297 97.4971C122.19 95.4298 118.806 95.4621 116.739 97.5693C114.671 99.6765 114.704 103.061 116.811 105.128Z" fill="#E1E6E9"/>
<path d="M98.9494 60.2626C101.057 62.3299 104.441 62.2976 106.508 60.1904C108.575 58.0832 108.543 54.6991 106.436 52.6318C104.329 50.5645 100.944 50.5969 98.8772 52.7041C96.8099 54.8112 96.8422 58.1953 98.9494 60.2626Z" fill="#E1E6E9"/>
<path d="M61.3147 43.1888C60.7079 43.8087 59.9592 44.2713 59.1334 44.5366C58.3076 44.802 57.4295 44.8621 56.5752 44.7117C57.0454 44.468 57.4727 44.1493 57.8404 43.7681C58.5223 43.0728 59.0013 42.2044 59.2258 41.2567C59.4502 40.3091 59.4115 39.3181 59.1139 38.3908C58.8163 37.4635 58.2711 36.6351 57.5371 35.995C56.8031 35.3549 55.9082 34.9275 54.949 34.7589C56.073 34.1445 57.3804 33.9546 58.6327 34.224C59.8849 34.4934 60.9986 35.204 61.7705 36.2262C62.5424 37.2484 62.921 38.5141 62.8374 39.7923C62.7537 41.0705 62.2132 42.276 61.3147 43.1888Z" fill="#D5D6DB"/>
<path d="M124.371 105.052C123.764 105.672 123.016 106.135 122.19 106.4C121.364 106.665 120.486 106.725 119.632 106.575C120.102 106.331 120.529 106.013 120.897 105.631C121.579 104.936 122.058 104.068 122.282 103.12C122.507 102.172 122.468 101.181 122.17 100.254C121.873 99.3268 121.328 98.4984 120.594 97.8583C119.86 97.2182 118.965 96.7908 118.005 96.6221C119.129 96.0077 120.437 95.8179 121.689 96.0873C122.941 96.3567 124.055 97.0673 124.827 98.0895C125.599 99.1117 125.977 100.377 125.894 101.656C125.81 102.934 125.27 104.139 124.371 105.052Z" fill="#D5D6DB"/>
<path d="M106.511 60.1888C105.905 60.8086 105.156 61.2713 104.33 61.5366C103.504 61.802 102.626 61.8621 101.772 61.7117C102.243 61.469 102.67 61.1501 103.037 60.7681C103.529 60.2671 103.917 59.6742 104.18 59.0232C104.442 58.3721 104.574 57.6758 104.567 56.9738C104.56 56.2719 104.415 55.5782 104.141 54.9323C103.866 54.2864 103.466 53.701 102.965 53.2095C102.198 52.4464 101.213 51.9396 100.146 51.7589C101.27 51.1445 102.577 50.9546 103.829 51.224C105.082 51.4934 106.195 52.204 106.967 53.2262C107.739 54.2484 108.118 55.5141 108.034 56.7923C107.95 58.0705 107.41 59.276 106.511 60.1888Z" fill="#D5D6DB"/>
<path d="M76.6818 82.9537L87.4934 79.9873L88.5264 70.8892L88.5318 70.8945L79.4476 72.0938L76.6883 82.9601L76.6818 82.9537Z" fill="#FE7058"/>
<path d="M76.1566 83.4963C76.0606 83.403 75.9911 83.286 75.955 83.1571C75.919 83.0283 75.9178 82.8921 75.9515 82.7626C75.9569 82.7412 75.9635 82.72 75.9712 82.6993L78.7141 71.9038C78.7512 71.7569 78.8316 71.6246 78.9447 71.5239C79.0579 71.4231 79.1987 71.3587 79.3489 71.3389L88.3412 70.149C88.4648 70.1255 88.5922 70.1317 88.713 70.167C88.8337 70.2023 88.9444 70.2657 89.0358 70.3521C89.1273 70.4385 89.1969 70.5454 89.239 70.664C89.2811 70.7826 89.2945 70.9094 89.278 71.0341L88.2518 80.0647C88.2347 80.2149 88.173 80.3566 88.0747 80.4715C87.9763 80.5864 87.8459 80.6691 87.7001 80.7092L76.9868 83.6489C76.958 83.6614 76.9284 83.6721 76.8982 83.6808C76.7693 83.7186 76.6327 83.7214 76.5024 83.689C76.3721 83.6566 76.2527 83.59 76.1566 83.4963ZM80.0554 72.7744L77.745 81.8772L86.8009 79.3922L87.6629 71.768L80.0554 72.7744Z" fill="#323C6B"/>
<path d="M72.039 62.4151C71.9469 62.3246 71.8795 62.2119 71.8432 62.0879C71.8069 61.964 71.8029 61.8328 71.8317 61.7068C71.8604 61.5809 71.9209 61.4644 72.0074 61.3684C72.0939 61.2725 72.2035 61.2002 72.3257 61.1586L73.7612 60.6705C73.9508 60.6075 74.1577 60.622 74.3367 60.7108C74.5157 60.7997 74.6523 60.9557 74.7168 61.1449C74.7812 61.3341 74.7682 61.5411 74.6806 61.7207C74.593 61.9004 74.4379 62.0381 74.2492 62.1038L72.8138 62.5919C72.6809 62.6371 72.5381 62.6445 72.4013 62.6133C72.2645 62.5821 72.1391 62.5135 72.039 62.4151Z" fill="#323C6B"/>
<path d="M76.5535 60.8805C76.4613 60.79 76.3939 60.6773 76.3576 60.5534C76.3213 60.4294 76.3174 60.2982 76.3461 60.1722C76.3749 60.0463 76.4353 59.9298 76.5218 59.8338C76.6083 59.7379 76.7179 59.6656 76.8402 59.624L88.6151 55.6216C88.8048 55.5585 89.0117 55.573 89.1907 55.6619C89.3697 55.7507 89.5063 55.9068 89.5707 56.096C89.6351 56.2852 89.6221 56.4921 89.5345 56.6718C89.4469 56.8514 89.2919 56.9891 89.1032 57.0549L77.3282 61.0573C77.1954 61.1025 77.0526 61.1099 76.9158 61.0787C76.779 61.0475 76.6535 60.9789 76.5535 60.8805Z" fill="#323C6B"/>
<path d="M86.104 122.19L37.279 74.2889C37.1606 74.1724 37.0838 74.0203 37.0603 73.8558C37.0369 73.6914 37.0682 73.5238 37.1494 73.3789L53.8519 43.5028C53.9031 43.411 53.9729 43.3309 54.0568 43.2675C54.1407 43.2042 54.2368 43.159 54.3391 43.1349C54.4414 43.1107 54.5476 43.1082 54.651 43.1273C54.7543 43.1465 54.8526 43.1869 54.9394 43.2462C55.4708 43.6071 56.0724 43.8517 56.7049 43.9641C57.3374 44.0766 57.9864 44.0542 58.6096 43.8985C58.7062 43.8743 58.8066 43.8695 58.905 43.8841C59.0034 43.8988 59.098 43.9328 59.1833 43.984C59.2688 44.035 59.3432 44.1026 59.4023 44.1827C59.4613 44.2629 59.5038 44.354 59.5272 44.4508L65.4479 68.2893L97.4067 57.4321C97.5015 57.4 97.6018 57.387 97.7018 57.3938C97.8017 57.4007 97.8993 57.4273 97.9888 57.4722C98.0784 57.5171 98.1582 57.5792 98.2235 57.6552C98.2889 57.7311 98.3385 57.8192 98.3696 57.9144C98.5922 58.5952 98.9753 59.2125 99.4866 59.7141C99.9979 60.2157 100.622 60.587 101.307 60.7965C101.403 60.8258 101.492 60.8737 101.569 60.9376C101.646 61.0015 101.71 61.0801 101.757 61.1688C101.803 61.2575 101.832 61.3545 101.841 61.4543C101.849 61.5541 101.838 61.6546 101.808 61.75L91.5632 93.9104L115.511 99.3746C115.608 99.3966 115.699 99.4375 115.78 99.495C115.862 99.5525 115.931 99.6254 115.984 99.7095C116.037 99.7939 116.072 99.8878 116.089 99.9859C116.106 100.084 116.103 100.184 116.08 100.281C115.937 100.908 115.927 101.557 116.051 102.188C116.176 102.818 116.432 103.415 116.804 103.94C116.865 104.025 116.907 104.123 116.928 104.226C116.949 104.329 116.949 104.435 116.926 104.538C116.904 104.64 116.861 104.737 116.799 104.822C116.737 104.908 116.659 104.979 116.568 105.032L87.0162 122.302C86.8729 122.386 86.706 122.421 86.5411 122.4C86.3763 122.38 86.2227 122.306 86.104 122.19ZM38.7512 73.612L86.7472 120.7L115.135 104.108C114.587 103.056 114.359 101.867 114.477 100.688L90.4149 95.2041C90.3129 95.1808 90.2167 95.1366 90.1326 95.0743C90.0485 95.0119 89.9783 94.9328 89.9263 94.842C89.8743 94.7511 89.8417 94.6504 89.8306 94.5463C89.8195 94.4423 89.8301 94.337 89.8618 94.2372L100.146 61.9758C98.8589 61.3925 97.8195 60.3727 97.2117 59.0968L65.1494 69.9925C65.0502 70.026 64.9452 70.0386 64.8409 70.0295C64.7366 70.0204 64.6353 69.9898 64.5435 69.9395C64.4516 69.8893 64.3712 69.8205 64.3073 69.7376C64.2433 69.6547 64.1973 69.5595 64.1721 69.4579L58.2288 45.5061C57.052 45.647 55.8597 45.4414 54.798 44.9146L38.7512 73.612Z" fill="#323C6B"/>
<path d="M53.2217 43.8014C52.3602 42.9562 51.7687 41.8745 51.5219 40.6931C51.2752 39.5118 51.3843 38.2838 51.8355 37.1644C52.2866 36.045 53.0596 35.0846 54.0566 34.4045C55.0536 33.7245 56.2299 33.3554 57.4367 33.3438C58.6436 33.3323 59.8267 33.6789 60.8365 34.3398C61.8463 35.0007 62.6375 35.9462 63.11 37.0567C63.5825 38.1672 63.715 39.3929 63.4909 40.5788C63.2668 41.7647 62.696 42.8574 61.8508 43.7189C60.7165 44.8723 59.171 45.5287 57.5533 45.5442C55.9356 45.5596 54.3779 44.9329 53.2217 43.8014ZM60.7091 36.1695C60.0613 35.5341 59.2397 35.1049 58.3481 34.9364C57.4565 34.7679 56.5349 34.8676 55.7 35.2228C54.865 35.5781 54.1541 36.1729 53.6572 36.9322C53.1604 37.6914 52.8998 38.581 52.9084 39.4883C52.9171 40.3957 53.1946 41.2801 53.7059 42.0297C54.2172 42.7793 54.9394 43.3605 55.781 43.6997C56.6226 44.0389 57.5459 44.121 58.4341 43.9355C59.3223 43.7499 60.1356 43.3052 60.7711 42.6575C61.6212 41.788 62.092 40.617 62.0802 39.401C62.0684 38.185 61.5749 37.0234 60.708 36.1706L60.7091 36.1695Z" fill="#323C6B"/>
<path d="M116.28 105.667C115.419 104.821 114.827 103.74 114.581 102.558C114.334 101.377 114.443 100.149 114.894 99.0296C115.345 97.9103 116.118 96.9498 117.115 96.2698C118.112 95.5897 119.289 95.2206 120.495 95.2091C121.702 95.1975 122.885 95.5441 123.895 96.205C124.905 96.8659 125.696 97.8114 126.169 98.9219C126.641 100.032 126.774 101.258 126.549 102.444C126.325 103.63 125.755 104.723 124.909 105.584C123.775 106.738 122.23 107.394 120.612 107.409C118.994 107.425 117.436 106.798 116.28 105.667ZM123.768 98.0348C123.12 97.3993 122.298 96.9702 121.407 96.8017C120.515 96.6332 119.594 96.7328 118.759 97.0881C117.924 97.4433 117.213 98.0381 116.716 98.7974C116.219 99.5567 115.958 100.446 115.967 101.354C115.976 102.261 116.253 103.145 116.765 103.895C117.276 104.645 117.998 105.226 118.84 105.565C119.681 105.904 120.604 105.986 121.493 105.801C122.381 105.615 123.194 105.17 123.83 104.523C124.68 103.653 125.151 102.482 125.139 101.266C125.127 100.05 124.634 98.8886 123.767 98.0359L123.768 98.0348Z" fill="#323C6B"/>
<path d="M98.4197 60.8037C97.5577 59.9584 96.9657 58.8765 96.7187 57.6947C96.4716 56.513 96.5806 55.2845 97.0318 54.1647C97.483 53.0449 98.2561 52.0841 99.2535 51.4037C100.251 50.7233 101.428 50.354 102.635 50.3425C103.842 50.331 105.026 50.6777 106.036 51.3389C107.046 52.0001 107.837 52.946 108.31 54.057C108.782 55.168 108.915 56.3941 108.69 57.5804C108.466 58.7666 107.895 59.8597 107.049 60.7213C105.914 61.8747 104.369 62.5311 102.751 62.5465C101.134 62.562 99.5759 61.9352 98.4197 60.8037ZM105.907 53.1719C105.259 52.5359 104.438 52.1064 103.546 51.9375C102.654 51.7687 101.732 51.8682 100.896 52.2233C100.061 52.5785 99.3496 53.1734 98.8524 53.9329C98.3551 54.6923 98.0943 55.5822 98.1028 56.4899C98.1113 57.3976 98.3888 58.2824 98.9003 59.0324C99.4117 59.7824 100.134 60.3639 100.976 60.7033C101.818 61.0427 102.742 61.1249 103.63 60.9393C104.519 60.7538 105.332 60.3089 105.968 59.6609C106.819 58.7916 107.291 57.6203 107.279 56.4038C107.268 55.1873 106.774 54.025 105.907 53.1719Z" fill="#323C6B"/>
<path d="M55.2042 84.652L45.2064 74.8434C45.0344 74.6747 44.9364 74.4445 44.9341 74.2036C44.9318 73.9626 45.0253 73.7307 45.1941 73.5587C45.3628 73.3867 45.593 73.2888 45.8339 73.2864C46.0749 73.2841 46.3068 73.3777 46.4788 73.5464L56.4766 83.355C56.6486 83.5237 56.7465 83.7539 56.7488 83.9948C56.7511 84.2357 56.6576 84.4677 56.4889 84.6397C56.3202 84.8117 56.09 84.9096 55.8491 84.9119C55.6081 84.9142 55.3762 84.8207 55.2042 84.652Z" fill="white"/>
<path d="M59.0553 88.4292L57.9744 87.3688C57.8024 87.2001 57.7045 86.9699 57.7022 86.729C57.6999 86.488 57.7934 86.2561 57.9622 86.0841C58.1309 85.9121 58.361 85.8141 58.602 85.8118C58.8429 85.8095 59.0749 85.903 59.2469 86.0718L60.3277 87.1322C60.4997 87.3009 60.5976 87.5311 60.5999 87.772C60.6022 88.0129 60.5087 88.2449 60.34 88.4169C60.1713 88.5889 59.9411 88.6868 59.7002 88.6891C59.4592 88.6914 59.2273 88.5979 59.0553 88.4292Z" fill="white"/>
</g>
<defs>
<clipPath id="clip0">
<rect width="112.047" height="112.047" fill="white" transform="translate(79.0347 0.566406) rotate(44.4527)"/>
</clipPath>
</defs>
</svg>
