<svg width="114" height="114" viewBox="0 0 114 114" fill="none" xmlns="http://www.w3.org/2000/svg">
<path d="M79.4167 6.98438H27.6176C24.3394 6.98438 21.6819 9.64188 21.6819 12.9201V107.144C21.6819 110.422 24.3394 113.08 27.6176 113.08H79.4167C82.6949 113.08 85.3524 110.422 85.3524 107.144V12.9201C85.3524 9.64188 82.6949 6.98438 79.4167 6.98438Z" fill="#9297AB"/>
<path d="M79.7693 17.541V22.7865H85.3461V12.9194C85.3471 12.1402 85.1944 11.3685 84.8967 10.6485C84.599 9.9284 84.1621 9.27416 83.6112 8.72321C83.0602 8.17225 82.406 7.73541 81.6859 7.43771C80.9659 7.14 80.1941 6.98728 79.415 6.9883H27.622C26.2726 6.98536 24.9627 7.44349 23.9093 8.2868C22.8558 9.13011 22.1221 10.308 21.8296 11.6253C21.8955 11.6125 21.9627 11.6074 22.0299 11.6099H73.8382C75.411 11.6107 76.9191 12.2359 78.0312 13.348C79.1433 14.4601 79.7685 15.9682 79.7693 17.541Z" fill="#84879C"/>
<path d="M79.7693 92.6895V111.761C79.7731 112.203 79.7214 112.643 79.6152 113.071C81.1547 113.023 82.6148 112.377 83.6851 111.269C84.7553 110.161 85.3512 108.68 85.3461 107.14V92.6895H79.7693Z" fill="#84879C"/>
<path d="M21.6819 23.4033H85.3524V92.1438H21.6819V23.4033Z" fill="#89C5CD"/>
<path d="M46.033 16.2798H44.5217C44.3174 16.2798 44.1215 16.1986 43.9771 16.0542C43.8326 15.9097 43.7515 15.7138 43.7515 15.5095C43.7515 15.3052 43.8326 15.1093 43.9771 14.9649C44.1215 14.8204 44.3174 14.7393 44.5217 14.7393H46.0376C46.2419 14.7393 46.4378 14.8204 46.5823 14.9649C46.7267 15.1093 46.8079 15.3052 46.8079 15.5095C46.8079 15.7138 46.7267 15.9097 46.5823 16.0542C46.4378 16.1986 46.2419 16.2798 46.0376 16.2798H46.033Z" fill="#323C6B"/>
<path d="M54.2749 16.2798H52.759C52.5548 16.2798 52.3588 16.1986 52.2144 16.0542C52.0699 15.9097 51.9888 15.7138 51.9888 15.5095C51.9888 15.3052 52.0699 15.1093 52.2144 14.9649C52.3588 14.8204 52.5548 14.7393 52.759 14.7393H54.2749C54.4792 14.7393 54.6751 14.8204 54.8196 14.9649C54.9641 15.1093 55.0452 15.3052 55.0452 15.5095C55.0452 15.7138 54.9641 15.9097 54.8196 16.0542C54.6751 16.1986 54.4792 16.2798 54.2749 16.2798Z" fill="#323C6B"/>
<path d="M62.5167 16.2798H61.0054C60.8011 16.2798 60.6052 16.1986 60.4607 16.0542C60.3163 15.9097 60.2351 15.7138 60.2351 15.5095C60.2351 15.3052 60.3163 15.1093 60.4607 14.9649C60.6052 14.8204 60.8011 14.7393 61.0054 14.7393H62.5197C62.724 14.7393 62.92 14.8204 63.0644 14.9649C63.2089 15.1093 63.29 15.3052 63.29 15.5095C63.29 15.7138 63.2089 15.9097 63.0644 16.0542C62.92 16.1986 62.724 16.2798 62.5197 16.2798H62.5167Z" fill="#323C6B"/>
<path d="M53.5171 105.943C55.5752 105.943 57.2437 104.275 57.2437 102.217C57.2437 100.159 55.5752 98.4902 53.5171 98.4902C51.459 98.4902 49.7905 100.159 49.7905 102.217C49.7905 104.275 51.459 105.943 53.5171 105.943Z" fill="#E1E6E9"/>
<path d="M53.517 106.714C52.6279 106.714 51.7588 106.451 51.0196 105.957C50.2803 105.463 49.7042 104.761 49.3639 103.939C49.0237 103.118 48.9347 102.214 49.1081 101.342C49.2816 100.47 49.7097 99.669 50.3384 99.0403C50.9671 98.4116 51.768 97.9835 52.64 97.81C53.512 97.6366 54.4159 97.7256 55.2373 98.0658C56.0587 98.4061 56.7608 98.9822 57.2547 99.7215C57.7487 100.461 58.0123 101.33 58.0123 102.219C58.0107 103.411 57.5366 104.553 56.6939 105.396C55.8512 106.238 54.7088 106.713 53.517 106.714ZM53.517 99.2626C52.9326 99.2626 52.3614 99.4359 51.8755 99.7606C51.3895 100.085 51.0108 100.547 50.7872 101.087C50.5636 101.627 50.505 102.221 50.619 102.794C50.7331 103.367 51.0145 103.893 51.4277 104.307C51.8409 104.72 52.3674 105.001 52.9406 105.115C53.5138 105.229 54.1079 105.171 54.6478 104.947C55.1877 104.724 55.6492 104.345 55.9738 103.859C56.2985 103.373 56.4718 102.802 56.4718 102.217C56.4706 101.434 56.1589 100.683 55.605 100.129C55.0512 99.5755 54.3003 99.2639 53.517 99.2626Z" fill="#323C6B"/>
<path d="M17.134 19.8718C16.9298 19.8718 16.7338 19.7906 16.5894 19.6462C16.4449 19.5017 16.3638 19.3058 16.3638 19.1015V17.9646C16.3638 17.7603 16.4449 17.5644 16.5894 17.4199C16.7338 17.2755 16.9298 17.1943 17.134 17.1943C17.3383 17.1943 17.5342 17.2755 17.6787 17.4199C17.8232 17.5644 17.9043 17.7603 17.9043 17.9646V19.1015C17.9043 19.3058 17.8232 19.5017 17.6787 19.6462C17.5342 19.7906 17.3383 19.8718 17.134 19.8718Z" fill="#323C6B"/>
<path d="M17.134 15.4279C16.9298 15.4279 16.7338 15.3468 16.5894 15.2023C16.4449 15.0579 16.3638 14.862 16.3638 14.6577V12.9199C16.3722 10.3366 17.2658 7.83413 18.8957 5.82976C20.5255 3.8254 22.7931 2.4402 25.3205 1.90508C25.4212 1.88032 25.5259 1.87616 25.6282 1.89284C25.7306 1.90953 25.8285 1.94671 25.9162 2.00216C26.0038 2.05762 26.0794 2.1302 26.1383 2.21556C26.1972 2.30092 26.2383 2.39729 26.259 2.49891C26.2798 2.60052 26.2798 2.70528 26.2591 2.80691C26.2384 2.90853 26.1973 3.00493 26.1385 3.09031C26.0796 3.1757 26.0041 3.24832 25.9165 3.30381C25.8289 3.35931 25.7309 3.39653 25.6286 3.41327C23.4473 3.87511 21.4901 5.07064 20.0834 6.80056C18.6767 8.53048 17.9055 10.6903 17.8981 12.9199V14.6577C17.8982 14.8609 17.8178 15.0559 17.6747 15.2002C17.5316 15.3444 17.3373 15.4263 17.134 15.4279Z" fill="#323C6B"/>
<path d="M89.8984 91.1164C89.6942 91.1164 89.4982 91.0352 89.3538 90.8908C89.2093 90.7463 89.1282 90.5504 89.1282 90.3461V76.073C89.1282 75.8687 89.2093 75.6728 89.3538 75.5283C89.4982 75.3839 89.6942 75.3027 89.8984 75.3027C90.1027 75.3027 90.2987 75.3839 90.4431 75.5283C90.5876 75.6728 90.6687 75.8687 90.6687 76.073V90.3461C90.6687 90.5504 90.5876 90.7463 90.4431 90.8908C90.2987 91.0352 90.1027 91.1164 89.8984 91.1164Z" fill="#323C6B"/>
<path d="M89.8984 96.372C89.6942 96.372 89.4982 96.2909 89.3538 96.1464C89.2093 96.002 89.1282 95.8061 89.1282 95.6018V94.1814C89.1282 93.9771 89.2093 93.7812 89.3538 93.6367C89.4982 93.4923 89.6942 93.4111 89.8984 93.4111C90.1027 93.4111 90.2987 93.4923 90.4431 93.6367C90.5876 93.7812 90.6687 93.9771 90.6687 94.1814V95.6018C90.6687 95.8061 90.5876 96.002 90.4431 96.1464C90.2987 96.2909 90.1027 96.372 89.8984 96.372Z" fill="#323C6B"/>
<path d="M79.7693 23.9424H85.3461V91.9187H79.7693V23.9424Z" fill="#6EAAAD"/>
<path d="M85.3463 92.9138H21.6819C21.4776 92.9138 21.2817 92.8327 21.1372 92.6882C20.9928 92.5438 20.9116 92.3478 20.9116 92.1435V23.4031C20.9116 23.1988 20.9928 23.0029 21.1372 22.8584C21.2817 22.714 21.4776 22.6328 21.6819 22.6328H85.3463C85.5506 22.6328 85.7465 22.714 85.8909 22.8584C86.0354 23.0029 86.1165 23.1988 86.1165 23.4031V92.1435C86.1165 92.3478 86.0354 92.5438 85.8909 92.6882C85.7465 92.8327 85.5506 92.9138 85.3463 92.9138ZM22.446 91.3733H84.576V24.1734H22.4522L22.446 91.3733Z" fill="#323C6B"/>
<path d="M79.4167 113.846H27.6191C25.8408 113.844 24.1359 113.136 22.8785 111.879C21.621 110.622 20.9137 108.917 20.9116 107.138V12.9204C20.9137 11.1421 21.621 9.43719 22.8785 8.17973C24.1359 6.92227 25.8408 6.21493 27.6191 6.21289H79.4167C81.1937 6.21697 82.8966 6.9252 84.1524 8.18244C85.4082 9.43968 86.1145 11.1434 86.1165 12.9204V107.143C86.1133 108.919 85.4065 110.622 84.1508 111.878C82.8951 113.134 81.1929 113.842 79.4167 113.846ZM27.6191 7.75497C26.2491 7.7562 24.9356 8.30096 23.9669 9.26969C22.9982 10.2384 22.4534 11.552 22.4522 12.9219V107.143C22.4546 108.512 22.9999 109.824 23.9685 110.792C24.9371 111.76 26.2499 112.304 27.6191 112.305H79.4167C80.7846 112.302 82.0954 111.757 83.0624 110.79C84.0293 109.822 84.5736 108.511 84.576 107.143V12.9204C84.5748 11.5504 84.03 10.2369 83.0613 9.26815C82.0926 8.29942 80.779 7.75466 79.409 7.75343L27.6191 7.75497Z" fill="#323C6B"/>
<path d="M40.6395 108.484H38.9757C38.7101 108.484 38.4554 108.379 38.2677 108.191C38.0799 108.003 37.9744 107.748 37.9744 107.483C37.9744 107.217 38.0799 106.963 38.2677 106.775C38.4554 106.587 38.7101 106.481 38.9757 106.481H40.6395C40.9051 106.481 41.1598 106.587 41.3476 106.775C41.5354 106.963 41.6409 107.217 41.6409 107.483C41.6409 107.748 41.5354 108.003 41.3476 108.191C41.1598 108.379 40.9051 108.484 40.6395 108.484Z" fill="white"/>
<path d="M34.4697 108.484H33.2034C31.3658 108.481 29.6044 107.749 28.3051 106.45C27.0057 105.151 26.2743 103.389 26.271 101.552V97.8236C26.271 97.558 26.3765 97.3033 26.5643 97.1156C26.7521 96.9278 27.0068 96.8223 27.2723 96.8223C27.5379 96.8223 27.7926 96.9278 27.9804 97.1156C28.1682 97.3033 28.2737 97.558 28.2737 97.8236V101.547C28.2765 102.854 28.7968 104.106 29.7207 105.03C30.6446 105.954 31.8969 106.474 33.2034 106.477H34.4697C34.7353 106.477 34.99 106.582 35.1778 106.77C35.3656 106.958 35.4711 107.213 35.4711 107.478C35.4711 107.744 35.3656 107.998 35.1778 108.186C34.99 108.374 34.7353 108.48 34.4697 108.48V108.484Z" fill="white"/>
<g clip-path="url(#clip0)">
<path d="M52.9922 71.4727C61.846 71.4727 69.0234 64.2952 69.0234 55.4414C69.0234 46.5876 61.846 39.4102 52.9922 39.4102C44.1384 39.4102 36.9609 46.5876 36.9609 55.4414C36.9609 64.2952 44.1384 71.4727 52.9922 71.4727Z" fill="#59AAE7"/>
<path d="M52.9922 39.4102C52.2835 39.4102 51.5856 39.4567 50.9012 39.5459C58.767 40.5705 64.8414 47.2963 64.8414 55.4414C64.8414 63.5865 58.7669 70.3123 50.9011 71.337C51.5856 71.4261 52.2835 71.4727 52.9922 71.4727C61.846 71.4727 69.0234 64.2952 69.0234 55.4414C69.0234 46.5876 61.846 39.4102 52.9922 39.4102Z" fill="#3D9AE3"/>
<path d="M47.2741 58.8946L42.1039 56.3095C41.9622 56.2386 41.9608 56.0369 42.1016 55.9641L61.7437 45.8043C61.8879 45.7297 62.0545 45.8551 62.0227 46.0144L58.6409 62.9235C58.6167 63.0441 58.4877 63.112 58.3745 63.0635L53.7785 61.0939C53.7235 61.0703 53.6605 61.0735 53.6081 61.1026L47.6691 64.402C47.54 64.4737 47.3812 64.3804 47.3812 64.2326V59.0679C47.3813 58.9945 47.3398 58.9274 47.2741 58.8946Z" fill="#FCFCFC"/>
<path d="M49.5048 60.6368L49.4727 55.475C49.4725 55.4419 49.4896 55.4112 49.5177 55.394L57.9028 50.2717C57.9978 50.2136 58.0973 50.3395 58.0188 50.4185L51.6376 56.845C51.6306 56.8522 51.6246 56.8603 51.6202 56.8693L50.5287 59.0521L49.6827 60.6796C49.6373 60.7669 49.5054 60.7352 49.5048 60.6368Z" fill="#D8D7DA"/>
</g>
<defs>
<clipPath id="clip0">
<rect width="32.0625" height="32.0625" fill="white" transform="translate(36.9609 39.4102)"/>
</clipPath>
</defs>
</svg>
