<svg width="246" height="246" viewBox="0 0 246 246" fill="none" xmlns="http://www.w3.org/2000/svg">
<path d="M246 123C246 190.931 190.931 246 123 246C55.069 246 0 190.931 0 123C0 55.069 55.069 0 123 0C190.931 0 246 55.069 246 123ZM33.9195 123C33.9195 172.198 73.8022 212.08 123 212.08C172.198 212.08 212.08 172.198 212.08 123C212.08 73.8022 172.198 33.9195 123 33.9195C73.8022 33.9195 33.9195 73.8022 33.9195 123Z" fill="#FF9A13" fill-opacity="0.5"/>
<g clip-path="url(#clip0)">
<path d="M124.58 153.715H162.076V179.275H83.1206L83.5244 175.638C86.3529 150.105 108.512 134.624 122.79 120.984C130.76 113.371 134.907 107.456 134.907 101.265C134.907 94.2282 131.337 90.6598 124.29 90.6598C123.79 90.6598 123.29 90.6751 122.79 90.71C118.109 91.057 113.632 93.3574 112.934 103.903L112.709 107.271L85.5738 104.628L85.9382 101.332C88.3805 79.2168 101.818 67.5294 124.8 67.5294C150.55 67.5294 162.076 83.7586 162.076 99.8395C162.076 126.202 136.455 140.596 124.58 153.715Z" fill="#FF9A13" fill-opacity="0.5"/>
</g>
<defs>
<clipPath id="clip0">
<rect width="111.745" height="111.745" fill="white" transform="translate(66.7256 67.5294)"/>
</clipPath>
</defs>
</svg>
