<svg width="246" height="246" viewBox="0 0 246 246" fill="none" xmlns="http://www.w3.org/2000/svg">
<path d="M246 123C246 190.931 190.931 246 123 246C55.069 246 0 190.931 0 123C0 55.069 55.069 0 123 0C190.931 0 246 55.069 246 123ZM33.9195 123C33.9195 172.198 73.8022 212.08 123 212.08C172.198 212.08 212.08 172.198 212.08 123C212.08 73.8022 172.198 33.9195 123 33.9195C73.8022 33.9195 33.9195 73.8022 33.9195 123Z" fill="#FF9A13" fill-opacity="0.5"/>
<g clip-path="url(#clip0)">
<path d="M162.067 143.243C162.067 163.349 144.703 179.102 122.781 179.272C122.657 179.275 122.535 179.275 122.41 179.275C83.9959 179.275 83.4699 144.588 83.1294 143.933L109.708 140.884C110.07 141.831 109.606 156.203 122.264 156.203C122.437 156.203 122.609 156.199 122.781 156.192C126.225 156.046 133.268 153.711 134.137 144.367C134.194 143.747 134.224 143.095 134.224 142.403C134.224 133.542 128.587 129.578 123.002 129.578C122.928 129.578 122.856 129.579 122.781 129.581C117.973 129.635 112.681 131.46 109.523 132.206L112.927 108.404C117.88 108.013 120.739 107.963 122.781 107.561C125.959 106.944 127.751 104.8 128.569 103.377C128.578 103.364 128.585 103.351 128.591 103.34C131.095 98.829 130.056 91.5044 122.781 90.5616C122.271 90.4939 121.727 90.459 121.153 90.459C110.066 90.459 110.682 103.644 110.317 104.676L84.4018 100.512C85.1591 99.0428 87.1583 67.5294 121.745 67.5294C122.092 67.5294 122.439 67.5338 122.781 67.5403C143.67 67.9856 157.185 82.4229 157.185 97.3339C157.185 105.569 153.442 112.485 146.036 117.963C155.971 122.522 162.067 131.848 162.067 143.243Z" fill="#FF9A13" fill-opacity="0.5"/>
</g>
<defs>
<clipPath id="clip0">
<rect width="111.745" height="111.745" fill="white" transform="translate(66.7256 67.5294)"/>
</clipPath>
</defs>
</svg>
