<svg width="153" height="305" viewBox="0 0 153 305" fill="none" xmlns="http://www.w3.org/2000/svg">
<path d="M152.5 305C132.473 305 112.643 301.055 94.1408 293.392C75.6386 285.728 58.8271 274.495 44.6662 260.334C30.5053 246.173 19.2722 229.361 11.6084 210.859C3.94453 192.357 -8.7539e-07 172.527 0 152.5C8.7539e-07 132.473 3.94453 112.643 11.6084 94.1408C19.2722 75.6386 30.5053 58.8271 44.6662 44.6662C58.8272 30.5053 75.6386 19.2722 94.1408 11.6084C112.643 3.94453 132.473 -1.75078e-06 152.5 0V20.5598C135.173 20.5598 118.016 23.9726 102.009 30.6032C86.001 37.2338 71.456 46.9524 59.2042 59.2042C46.9524 71.456 37.2338 86.001 30.6032 102.009C23.9726 118.016 20.5598 135.173 20.5598 152.5C20.5598 169.827 23.9726 186.984 30.6032 202.991C37.2338 218.999 46.9524 233.544 59.2042 245.796C71.456 258.048 86.001 267.766 102.009 274.397C118.016 281.027 135.173 284.44 152.5 284.44V305Z" fill="#FFE5C3"/>
</svg>
