<svg width="153" height="305" viewBox="0 0 153 305" fill="none" xmlns="http://www.w3.org/2000/svg">
<path d="M0.5 305C20.5266 305 40.3571 301.055 58.8592 293.392C77.3614 285.728 94.1729 274.495 108.334 260.334C122.495 246.173 133.728 229.361 141.392 210.859C149.055 192.357 153 172.527 153 152.5C153 132.473 149.055 112.643 141.392 94.1408C133.728 75.6386 122.495 58.8271 108.334 44.6662C94.1728 30.5053 77.3614 19.2722 58.8592 11.6084C40.3571 3.94453 20.5266 -1.75078e-06 0.499985 0V20.557C17.827 20.557 34.9843 23.9698 50.9924 30.6006C67.0005 37.2313 81.5457 46.9502 93.7978 59.2022C106.05 71.4542 115.769 85.9995 122.399 102.008C129.03 118.016 132.443 135.173 132.443 152.5C132.443 169.827 129.03 186.984 122.399 202.992C115.769 219 106.05 233.546 93.7978 245.798C81.5457 258.05 67.0005 267.769 50.9924 274.399C34.9843 281.03 17.827 284.443 0.5 284.443V305Z" fill="white"/>
</svg>
