<svg width="153" height="305" viewBox="0 0 153 305" fill="none" xmlns="http://www.w3.org/2000/svg">
<path d="M0.5 305C20.5266 305 40.3571 301.055 58.8592 293.392C77.3614 285.728 94.1729 274.495 108.334 260.334C122.495 246.173 133.728 229.361 141.392 210.859C149.055 192.357 153 172.527 153 152.5C153 132.473 149.055 112.643 141.392 94.1408C133.728 75.6386 122.495 58.8271 108.334 44.6662C94.1728 30.5053 77.3614 19.2722 58.8592 11.6084C40.3571 3.94453 20.5266 -1.75078e-06 0.499985 0V20.5598C17.8266 20.5598 34.9836 23.9726 50.9913 30.6032C66.999 37.2338 81.544 46.9524 93.7958 59.2042C106.048 71.456 115.766 86.001 122.397 102.009C129.027 118.016 132.44 135.173 132.44 152.5C132.44 169.827 129.027 186.984 122.397 202.991C115.766 218.999 106.048 233.544 93.7958 245.796C81.544 258.048 66.999 267.766 50.9913 274.397C34.9836 281.027 17.8266 284.44 0.5 284.44V305Z" fill="white"/>
</svg>
