<svg width="90" height="90" viewBox="0 0 90 90" fill="none" xmlns="http://www.w3.org/2000/svg">
<path d="M90 45C90 69.8528 69.8528 90 45 90C20.1472 90 0 69.8528 0 45C0 20.1472 20.1472 0 45 0C69.8528 0 90 20.1472 90 45ZM12.4096 45C12.4096 62.9992 27.0008 77.5904 45 77.5904C62.9992 77.5904 77.5904 62.9992 77.5904 45C77.5904 27.0008 62.9992 12.4096 45 12.4096C27.0008 12.4096 12.4096 27.0008 12.4096 45Z" fill="#FF9A13" fill-opacity="0.5"/>
<g clip-path="url(#clip0)">
<path d="M51.4937 24.4121V65.2945H41.9119V38.9285C37.6959 42.1384 33.1924 43.2163 32.3301 43.5757V34.4011C32.857 34.1854 35.1087 33.8261 39.0133 30.7599C40.3309 29.7298 41.265 28.6998 41.9119 27.7656C43.0856 26.065 43.3731 24.6996 43.5168 24.4121H51.4937Z" fill="#FF9A13" fill-opacity="0.5"/>
</g>
<defs>
<clipPath id="clip0">
<rect width="40.8824" height="40.8824" fill="white" transform="translate(21.4707 24.4121)"/>
</clipPath>
</defs>
</svg>
