<svg width="14" height="14" viewBox="0 0 14 14" fill="none" xmlns="http://www.w3.org/2000/svg">
<g clip-path="url(#clip0)">
<path d="M7.00002 14C10.866 14 14 10.866 14 7.00002C14 3.13401 10.866 0 7.00002 0C3.13401 0 0 3.13401 0 7.00002C0 10.866 3.13401 14 7.00002 14Z" fill="#E08D8C"/>
<path d="M10.1937 10.1937C9.93124 10.4562 9.49372 10.4562 9.23123 10.1937L6.99999 7.96249L4.76875 10.1937C4.50626 10.4562 4.06873 10.4562 3.80624 10.1937C3.54375 9.93124 3.54375 9.49372 3.80624 9.23123L6.03748 6.99999L3.80624 4.76875C3.54375 4.50626 3.54375 4.06873 3.80624 3.80624C4.06873 3.54375 4.50626 3.54375 4.76875 3.80624L6.99999 6.03748L9.23123 3.80624C9.49372 3.54375 9.93124 3.54375 10.1937 3.80624C10.4562 4.06873 10.4562 4.50626 10.1937 4.76875L7.96249 6.99999L10.1937 9.23123C10.4562 9.49372 10.4562 9.93121 10.1937 10.1937Z" fill="white"/>
</g>
<defs>
<clipPath id="clip0">
<rect width="14" height="14" fill="white"/>
</clipPath>
</defs>
</svg>
