<svg width="14" height="14" viewBox="0 0 14 14" fill="none" xmlns="http://www.w3.org/2000/svg">
<g clip-path="url(#clip0)">
<path d="M7 14C10.866 14 14 10.866 14 7C14 3.13401 10.866 0 7 0C3.13401 0 0 3.13401 0 7C0 10.866 3.13401 14 7 14Z" fill="#4BE29A"/>
<path d="M10.8062 4.9875L6.25618 9.97501C5.94992 10.325 5.42494 10.325 5.11868 9.97501L3.19367 7.83126C2.93118 7.525 2.93118 7.04376 3.23741 6.7375C3.54368 6.47501 4.02491 6.47501 4.33118 6.78124L5.68743 8.3125L9.66867 3.98125C9.97494 3.67499 10.4562 3.63125 10.7624 3.93751C11.0687 4.2 11.0687 4.72501 10.8062 4.9875Z" fill="white"/>
</g>
<defs>
<clipPath id="clip0">
<rect width="14" height="14" fill="white"/>
</clipPath>
</defs>
</svg>
