<svg width="90" height="90" viewBox="0 0 90 90" fill="none" xmlns="http://www.w3.org/2000/svg">
<path d="M90 45C90 69.8528 69.8528 90 45 90C20.1472 90 0 69.8528 0 45C0 20.1472 20.1472 0 45 0C69.8528 0 90 20.1472 90 45ZM12.4096 45C12.4096 62.9992 27.0008 77.5904 45 77.5904C62.9992 77.5904 77.5904 62.9992 77.5904 45C77.5904 27.0008 62.9992 12.4096 45 12.4096C27.0008 12.4096 12.4096 27.0008 12.4096 45Z" fill="#FF9A13" fill-opacity="0.5"/>
<g clip-path="url(#clip0)">
<path d="M59.2929 52.4062C59.2929 59.7619 52.9401 65.5253 44.9202 65.5876C44.8747 65.5884 44.8299 65.5884 44.7844 65.5884C30.7303 65.5884 30.5379 52.8981 30.4133 52.6586L40.1373 51.5431C40.2698 51.8896 40.0997 57.1476 44.7309 57.1476C44.794 57.1476 44.8571 57.146 44.9202 57.1436C46.1802 57.0901 48.7569 56.2358 49.0747 52.8175C49.0954 52.5907 49.1066 52.3519 49.1066 52.0988C49.1066 48.857 47.0441 47.4069 45.0008 47.4069C44.9737 47.4069 44.9473 47.4069 44.9202 47.4077C43.1611 47.4277 41.2248 48.0952 40.0694 48.3683L41.315 39.6601C43.1268 39.5171 44.1728 39.4988 44.9202 39.3518C46.0828 39.1259 46.7383 38.3418 47.0378 37.8211C47.0409 37.8164 47.0433 37.8116 47.0457 37.8076C47.9616 36.1571 47.5815 33.4774 44.9202 33.1325C44.7333 33.1077 44.5345 33.0949 44.3245 33.0949C40.2682 33.0949 40.4934 37.9186 40.36 38.2962L30.8788 36.7727C31.1559 36.2354 31.8873 24.7061 44.5409 24.7061C44.6679 24.7061 44.7948 24.7077 44.9202 24.71C52.5625 24.8729 57.5067 30.1549 57.5067 35.6101C57.5067 38.6228 56.1373 41.1532 53.428 43.1574C57.0627 44.8254 59.2929 48.2374 59.2929 52.4062Z" fill="#FF9A13" fill-opacity="0.5"/>
</g>
<defs>
<clipPath id="clip0">
<rect width="40.8824" height="40.8824" fill="white" transform="translate(24.4119 24.7061)"/>
</clipPath>
</defs>
</svg>
