<svg width="204" height="204" viewBox="0 0 204 204" fill="none" xmlns="http://www.w3.org/2000/svg">
<path d="M25.23 130.748H33.1695C33.1695 130.748 28.8965 137.585 30.137 143.319C32.356 144.237 34.3988 145.534 36.1743 147.151C34.9363 148.338 34.033 149.831 33.5554 151.479C33.5554 151.479 41.4673 155.614 40.337 160.659C39.1516 165.704 33.8862 182.961 54.0657 180.122C70.8268 177.778 72.2603 178.66 75.3479 181.031C79.097 183.926 83.0943 191.59 85.9614 197.875L161.304 182.162L161.213 181.947C157.084 171.661 155.965 160.413 157.987 149.516C161.296 132.889 166.353 116.658 173.075 101.094C176.925 92.255 178.822 82.6894 178.637 73.0503C178.451 63.4112 176.187 53.9257 172 45.2417C169.8 40.6401 167.031 36.3333 163.757 32.4228C163.757 32.4228 147.189 8.71472 95.2792 10.5342C39.4825 12.4639 25.3954 49.1839 32.2873 61.5893C33.5363 63.8098 35.3172 65.6854 37.47 67.0477C35.1819 74.2704 36.3673 81.7688 38.3797 89.1017C39.3009 91.9017 39.1636 94.9422 37.9938 97.6477C36.0365 101.535 27.1597 113.72 20.8743 122.155C20.2908 122.962 19.9407 123.913 19.8625 124.906C19.7842 125.898 19.981 126.892 20.431 127.78C20.881 128.668 21.567 129.415 22.4136 129.938C23.2602 130.462 24.2347 130.742 25.23 130.748Z" fill="#FCD462"/>
<path d="M157.99 149.499C155.956 160.402 157.074 171.658 161.215 181.946C161.247 182.018 161.275 182.092 161.298 182.167L150.298 184.455C147.252 175.166 146.589 165.26 148.368 155.647C151.681 139.014 156.745 122.778 163.475 107.211C167.326 98.3721 169.223 88.8065 169.038 79.1674C168.852 69.5282 166.588 60.0427 162.4 51.3588C160.201 46.7572 157.432 42.4504 154.158 38.5399C154.158 38.5399 137.59 14.8318 85.6798 16.6513C72.3041 16.7699 59.1217 19.8584 47.0852 25.6934C57.3955 17.6161 72.9987 11.3031 95.2733 10.5313C147.183 8.71179 163.751 32.4199 163.751 32.4199C167.025 36.3304 169.795 40.6372 171.994 45.2388C176.182 53.9227 178.445 63.4082 178.631 73.0474C178.817 82.6865 176.919 92.2521 173.069 101.091C166.352 116.651 161.298 132.877 157.99 149.499Z" fill="#F7BE56"/>
<path d="M106.444 37.6499C106.401 35.5407 107.185 33.4984 108.627 31.9585C110.069 30.4187 112.055 29.5031 114.163 29.4072H114.256C116.612 29.4349 118.892 30.2414 120.742 31.7011C122.591 33.1608 123.905 35.1914 124.479 37.4763C126.145 36.3066 128.132 35.6799 130.168 35.6816C133.105 35.7867 135.882 37.0464 137.895 39.187C139.908 41.3277 140.995 44.1763 140.92 47.1139C140.924 48.3365 140.711 49.5502 140.289 50.6977C143.002 51.0701 145.483 52.4336 147.251 54.5255C149.02 56.6174 149.952 59.2898 149.868 62.0279C149.883 63.2893 149.668 64.5429 149.234 65.7275C150.881 66.7791 152.237 68.2286 153.176 69.9424C154.116 71.6562 154.608 73.579 154.608 75.5333C154.608 77.4876 154.116 79.4103 153.176 81.1241C152.237 82.8379 150.881 84.2875 149.234 85.3391C149.668 86.5228 149.882 87.7754 149.868 89.0359C149.936 91.7534 149.01 94.4023 147.264 96.486C145.518 98.5697 143.072 99.9454 140.385 100.355C140.722 101.483 140.899 102.652 140.912 103.829C141.008 106.783 139.932 109.655 137.917 111.818C135.903 113.981 133.114 115.258 130.16 115.371C128.124 115.373 126.137 114.746 124.47 113.577C123.896 115.861 122.582 117.892 120.733 119.352C118.884 120.811 116.604 121.618 114.248 121.646H114.146C112.042 121.545 110.059 120.628 108.621 119.089C107.182 117.549 106.401 115.509 106.444 113.403V37.6499Z" fill="#E87A72"/>
<path d="M149.223 85.323C149.663 86.504 149.878 87.757 149.857 89.0171C149.903 91.3158 149.247 93.5739 147.976 95.49C146.705 97.406 144.88 98.889 142.745 99.7409C143.513 98.1116 143.908 96.3318 143.903 94.5306C143.924 93.2705 143.709 92.0176 143.269 90.8366C144.916 89.7864 146.272 88.3378 147.211 86.6249C148.151 84.912 148.643 82.9899 148.643 81.0363C148.643 79.0827 148.151 77.1606 147.211 75.4477C146.272 73.7347 144.916 72.2862 143.269 71.236C143.709 70.055 143.924 68.8021 143.903 67.542C143.993 64.8045 143.064 62.1309 141.297 60.0381C139.531 57.9453 137.05 56.582 134.337 56.2117C134.747 55.0619 134.953 53.8488 134.943 52.6279C135.026 49.6921 133.945 46.8426 131.937 44.6998C129.928 42.557 127.154 41.2945 124.219 41.1874C122.179 41.1898 120.188 41.815 118.513 42.9793C117.934 40.6978 116.617 38.6716 114.767 37.2158C112.918 35.76 110.639 34.9563 108.285 34.9295H108.203C107.747 34.9285 107.293 34.9841 106.852 35.0949C107.31 33.496 108.265 32.0842 109.578 31.0634C110.891 30.0426 112.495 29.4657 114.157 29.416H114.24C116.593 29.4432 118.872 30.2471 120.722 31.7029C122.571 33.1586 123.888 35.1845 124.467 37.4657C126.145 36.3053 128.134 35.6805 130.174 35.6739C133.112 35.7803 135.889 37.0416 137.902 39.1838C139.915 41.3259 141.001 44.1758 140.925 47.1144C140.926 48.3369 140.711 49.5499 140.291 50.6982C143.005 51.0685 145.485 52.4318 147.252 54.5246C149.019 56.6174 149.947 59.291 149.857 62.0285C149.878 63.2886 149.663 64.5415 149.223 65.7225C150.871 66.7722 152.228 68.2206 153.168 69.9336C154.107 71.6466 154.6 73.5689 154.6 75.5228C154.6 77.4767 154.107 79.399 153.168 81.112C152.228 82.825 150.871 84.2733 149.223 85.323Z" fill="#D66E6B"/>
<path d="M123.26 53.8759C122.918 53.8777 122.587 53.752 122.332 53.5231C122.077 53.2943 121.917 52.9788 121.882 52.6381C121.871 52.1535 121.759 51.6765 121.551 51.2384C121.344 50.8004 121.046 50.4112 120.677 50.0964C119.754 49.5177 118.653 49.2898 117.576 49.4541C117.216 49.5177 116.845 49.4357 116.545 49.226C116.246 49.0164 116.042 48.6963 115.978 48.3362C115.914 47.9762 115.996 47.6055 116.206 47.306C116.416 47.0064 116.736 46.8023 117.096 46.7387C118.924 46.4461 120.795 46.8557 122.334 47.8855C123.013 48.4245 123.569 49.1022 123.966 49.8732C124.362 50.6443 124.59 51.491 124.633 52.357C124.67 52.7203 124.561 53.0834 124.331 53.3667C124.1 53.6499 123.767 53.8301 123.403 53.8677L123.26 53.8759Z" fill="#323C6B"/>
<path d="M130.53 65.3361C130.27 65.3363 130.016 65.2634 129.796 65.1257C129.577 64.988 129.4 64.791 129.287 64.5575C129.174 64.324 129.13 64.0634 129.158 63.8056C129.187 63.5479 129.288 63.3034 129.449 63.1003C130.627 61.6731 132.301 60.7444 134.135 60.5007C135.002 60.4577 135.867 60.5989 136.675 60.9149C137.483 61.2308 138.215 61.7145 138.822 62.334C139.09 62.5825 139.249 62.9275 139.263 63.293C139.277 63.6586 139.145 64.0147 138.896 64.283C138.648 64.5513 138.303 64.7099 137.937 64.7238C137.572 64.7378 137.216 64.606 136.947 64.3574C136.617 64.0005 136.215 63.7177 135.767 63.5276C135.32 63.3376 134.837 63.2445 134.351 63.2547C133.285 63.4408 132.319 63.9938 131.619 64.8178C131.488 64.981 131.322 65.1125 131.134 65.2023C130.945 65.2921 130.739 65.3378 130.53 65.3361Z" fill="#323C6B"/>
<path d="M131.252 86.963C130.992 86.9633 130.738 86.8903 130.519 86.7526C130.299 86.6149 130.122 86.418 130.009 86.1845C129.897 85.951 129.852 85.6904 129.88 85.4326C129.909 85.1748 130.01 84.9304 130.171 84.7273C131.349 83.3001 133.023 82.3714 134.858 82.1277C135.724 82.0847 136.59 82.2258 137.397 82.5418C138.205 82.8578 138.937 83.3415 139.544 83.9609C139.812 84.2095 139.971 84.5545 139.985 84.92C139.999 85.2855 139.867 85.6416 139.619 85.9099C139.37 86.1783 139.025 86.3368 138.659 86.3508C138.294 86.3648 137.938 86.2329 137.67 85.9844C137.34 85.6265 136.938 85.343 136.49 85.1529C136.042 84.9627 135.559 84.8703 135.073 84.8817C134.007 85.0678 133.041 85.6208 132.341 86.4447C132.21 86.608 132.045 86.7395 131.856 86.8293C131.667 86.9191 131.461 86.9648 131.252 86.963Z" fill="#323C6B"/>
<path d="M117.57 103.379C117.34 103.378 117.113 103.319 116.911 103.208C116.709 103.097 116.538 102.937 116.414 102.743C116.289 102.549 116.216 102.327 116.2 102.097C116.184 101.867 116.225 101.636 116.321 101.427C117.132 99.766 118.538 98.4716 120.261 97.8017C121.092 97.5532 121.967 97.4854 122.826 97.6029C123.686 97.7203 124.511 98.0203 125.245 98.4826C125.411 98.5662 125.558 98.6825 125.678 98.8245C125.798 98.9665 125.887 99.1312 125.942 99.3088C125.996 99.4864 126.014 99.6731 125.995 99.8579C125.976 100.043 125.919 100.221 125.829 100.384C125.738 100.546 125.616 100.688 125.469 100.802C125.322 100.916 125.154 100.999 124.975 101.046C124.795 101.094 124.608 101.104 124.424 101.077C124.24 101.05 124.064 100.986 123.905 100.889C123.502 100.619 123.046 100.438 122.567 100.357C122.089 100.277 121.599 100.298 121.129 100.421C120.125 100.845 119.308 101.616 118.824 102.593C118.712 102.83 118.534 103.029 118.312 103.168C118.089 103.308 117.832 103.38 117.57 103.379Z" fill="#323C6B"/>
<path d="M122.157 79.9467C121.925 79.9465 121.696 79.8875 121.492 79.775C121.288 79.6626 121.117 79.5005 120.992 79.3037C120.868 79.107 120.796 78.882 120.782 78.6498C120.769 78.4176 120.814 78.1857 120.914 77.9756C121.155 77.5552 121.304 77.0884 121.352 76.6061C121.399 76.1238 121.344 75.6369 121.19 75.1775C120.7 74.2033 119.877 73.4367 118.871 73.0162C118.537 72.8793 118.27 72.6167 118.127 72.2848C117.984 71.9529 117.978 71.5783 118.109 71.2416C118.239 70.9049 118.497 70.633 118.826 70.4844C119.156 70.3358 119.53 70.3223 119.869 70.4469C121.579 71.1465 122.963 72.4658 123.742 74.141C124.043 74.9545 124.167 75.8228 124.106 76.688C124.045 77.5532 123.799 78.3954 123.387 79.1583C123.276 79.3917 123.102 79.5894 122.885 79.7287C122.668 79.8681 122.415 79.9437 122.157 79.9467Z" fill="#323C6B"/>
<path d="M85.961 199.254C85.6968 199.254 85.4381 199.178 85.2157 199.035C84.9933 198.892 84.8166 198.689 84.7067 198.449C79.7914 187.67 76.4365 183.623 74.5067 182.123C71.8079 180.05 70.6803 179.193 54.2556 181.489C47.6559 182.412 42.9253 181.343 40.1741 178.299C35.7826 173.442 37.8198 165.161 38.7957 161.18L38.9969 160.353C39.7275 157.089 34.8618 153.737 32.9155 152.708C32.665 152.577 32.461 152.371 32.3313 152.12C32.2016 151.868 32.1524 151.583 32.1905 151.302C32.5145 149.788 33.226 148.385 34.2553 147.228C32.8006 146.185 31.2377 145.301 29.5936 144.593C29.3918 144.506 29.2137 144.372 29.0742 144.202C28.9346 144.032 28.8377 143.831 28.7914 143.617C28.2668 139.666 28.9927 135.649 30.8673 132.132H25.2269C23.9761 132.127 22.7509 131.777 21.6864 131.12C20.6218 130.463 19.7593 129.525 19.1937 128.409C18.6281 127.293 18.3815 126.043 18.481 124.796C18.5805 123.549 19.0222 122.354 19.7575 121.342C24.1684 115.415 34.644 101.204 36.764 97.0247C37.7887 94.6213 37.8869 91.9235 37.0396 89.4519C34.7059 82.4078 34.2976 74.8678 35.857 67.6129C33.8889 66.199 32.2559 64.3693 31.074 62.2537C27.912 56.5583 28.9927 47.3397 33.8308 38.7689C38.611 30.325 54.137 10.5701 95.2293 9.15032C147.332 7.32811 164.192 30.6337 164.887 31.6262C168.208 35.5873 171.013 39.954 173.234 44.6215C177.515 53.4829 179.83 63.165 180.021 73.0044C180.211 82.8438 178.272 92.6082 174.337 101.628C167.657 117.099 162.63 133.232 159.34 149.759C157.357 160.398 158.449 171.382 162.489 181.423C162.571 181.626 162.611 181.844 162.608 182.063C162.606 182.282 162.559 182.498 162.472 182.699C162.39 182.889 162.268 183.06 162.115 183.199C161.962 183.339 161.781 183.445 161.584 183.51L86.2422 199.223C86.1498 199.243 86.0556 199.253 85.961 199.254ZM68.0918 177.365C69.5454 177.229 71.0115 177.388 72.4029 177.83C73.7942 178.272 75.0825 178.99 76.1911 179.94C79.2539 182.305 82.8073 187.807 86.7578 196.304L159.431 181.142C155.619 170.965 154.651 159.942 156.63 149.257C159.96 132.53 165.048 116.202 171.809 100.545C175.587 91.8898 177.449 82.5203 177.269 73.0783C177.089 63.6362 174.87 54.3447 170.764 45.84C168.617 41.356 165.921 37.1564 162.737 33.3381C162.461 32.9715 145.703 10.1345 95.3285 11.8988C55.6312 13.2772 40.7861 32.0921 36.2457 40.117C31.2615 48.9386 31.2835 56.9084 33.4889 60.9084C34.6304 62.9279 36.2548 64.6329 38.2168 65.8706C38.4675 66.0365 38.657 66.2799 38.7566 66.5636C38.8561 66.8473 38.8602 67.1557 38.7681 67.4419C36.4469 74.7667 37.9411 82.3064 39.6944 88.7158C40.7268 91.844 40.5528 95.245 39.2065 98.2515C37.0838 102.458 27.4902 115.536 21.9629 122.958C21.5299 123.559 21.2707 124.268 21.2137 125.007C21.1567 125.745 21.3041 126.486 21.6397 127.146C21.9753 127.807 22.4862 128.363 23.1165 128.752C23.7468 129.142 24.4721 129.351 25.2132 129.356H33.1554C33.4014 129.356 33.643 129.422 33.855 129.547C34.067 129.672 34.2417 129.851 34.361 130.066C34.4802 130.281 34.5397 130.525 34.5333 130.771C34.5268 131.016 34.4546 131.256 34.3242 131.465C32.3108 134.733 31.2802 138.511 31.3552 142.349C33.541 143.277 35.5335 144.607 37.2299 146.269C37.4469 146.535 37.5565 146.873 37.5371 147.217C37.5177 147.56 37.3708 147.883 37.1251 148.124C36.3308 148.91 35.6697 149.819 35.1678 150.817C37.4476 152.229 42.7544 156.099 41.6682 160.948L41.456 161.822C40.5931 165.343 38.7929 172.665 42.2031 176.433C44.3037 178.76 48.2155 179.537 53.8614 178.743C58.5709 177.983 63.3239 177.523 68.0918 177.365Z" fill="#323C6B"/>
<path d="M114.248 123.018C111.759 122.946 109.398 121.896 107.679 120.095C105.96 118.293 105.021 115.887 105.065 113.397V37.6494C105.014 35.1756 105.937 32.7809 107.635 30.9812C109.334 29.1815 111.671 28.1211 114.143 28.0283C116.513 28.0406 118.827 28.7497 120.796 30.0673C122.766 31.3849 124.304 33.2529 125.22 35.4385C126.761 34.6944 128.449 34.3072 130.16 34.3055C133.465 34.4014 136.597 35.8032 138.871 38.2038C141.144 40.6044 142.374 43.8081 142.29 47.1133C142.29 47.9527 142.202 48.7899 142.028 49.611C144.727 50.3564 147.099 51.9818 148.769 54.2291C150.439 56.4765 151.311 59.2172 151.246 62.0164C151.252 63.0715 151.122 64.123 150.86 65.1453C152.46 66.3472 153.756 67.9064 154.646 69.6985C155.536 71.4906 155.995 73.4658 155.985 75.4666C156.001 77.4842 155.546 79.4776 154.657 81.2885C153.767 83.0994 152.467 84.6778 150.86 85.8982C151.122 86.9204 151.252 87.9719 151.246 89.0271C151.294 91.8178 150.419 94.5461 148.758 96.789C147.096 99.0319 144.741 100.664 142.058 101.432C142.211 102.222 142.288 103.024 142.29 103.828C142.388 107.148 141.167 110.372 138.893 112.794C136.62 115.215 133.48 116.637 130.16 116.749C128.449 116.748 126.76 116.36 125.22 115.616C124.315 117.787 122.793 119.645 120.843 120.961C118.893 122.276 116.6 122.992 114.248 123.018ZM114.248 30.7851C112.488 30.8526 110.826 31.6118 109.623 32.8975C108.42 34.1833 107.773 35.8919 107.822 37.6522V113.394C107.769 115.141 108.404 116.838 109.59 118.122C110.775 119.405 112.417 120.173 114.163 120.258C116.227 120.237 118.227 119.535 119.852 118.26C121.477 116.985 122.635 115.21 123.147 113.209C123.205 112.995 123.313 112.797 123.464 112.634C123.614 112.471 123.802 112.346 124.011 112.271C124.22 112.195 124.444 112.172 124.664 112.202C124.884 112.232 125.094 112.314 125.275 112.443C126.707 113.447 128.414 113.984 130.163 113.981C132.751 113.869 135.19 112.738 136.946 110.833C138.703 108.928 139.634 106.406 139.536 103.817C139.527 102.767 139.366 101.723 139.059 100.718C139.005 100.527 138.993 100.327 139.023 100.131C139.054 99.9348 139.127 99.7477 139.236 99.5822C139.346 99.4168 139.49 99.277 139.659 99.1724C139.828 99.0678 140.017 99.0009 140.214 98.9762C142.566 98.6042 144.702 97.3893 146.224 95.5581C147.745 93.7268 148.549 91.4045 148.484 89.0243C148.496 87.9293 148.309 86.8412 147.933 85.8127C147.823 85.5126 147.82 85.1836 147.926 84.8818C148.031 84.5801 148.238 84.3244 148.512 84.1586C149.955 83.2295 151.143 81.953 151.965 80.4459C152.787 78.9389 153.218 77.2495 153.218 75.5328C153.218 73.816 152.787 72.1266 151.965 70.6196C151.143 69.1125 149.955 67.836 148.512 66.9069C148.238 66.7411 148.031 66.4854 147.926 66.1837C147.82 65.8819 147.823 65.5529 147.933 65.2528C148.309 64.2233 148.496 63.1344 148.484 62.0384C148.57 59.6407 147.763 57.2965 146.22 55.4592C144.677 53.6219 142.508 52.4222 140.131 52.0921C139.921 52.0702 139.719 52.0005 139.541 51.8884C139.362 51.7762 139.212 51.6245 139.101 51.445C138.99 51.2655 138.922 51.063 138.902 50.8531C138.882 50.6431 138.91 50.4313 138.984 50.234C139.351 49.2422 139.538 48.1929 139.536 47.1354C139.619 44.5614 138.68 42.059 136.924 40.1755C135.167 38.292 132.736 37.1806 130.163 37.0843C128.415 37.0742 126.707 37.6016 125.27 38.595C125.088 38.7229 124.879 38.8051 124.659 38.8348C124.439 38.8645 124.216 38.8407 124.007 38.7655C123.799 38.6903 123.611 38.5658 123.461 38.4027C123.311 38.2396 123.202 38.0427 123.144 37.8286C122.638 35.8417 121.494 34.076 119.886 32.8033C118.279 31.5306 116.298 30.8215 114.248 30.7851Z" fill="#323C6B"/>
<path d="M106.444 37.6499C106.486 35.5407 105.703 33.4984 104.261 31.9585C102.819 30.4187 100.832 29.5031 98.7249 29.4072H98.6312C96.2755 29.4349 93.9952 30.2414 92.1461 31.7011C90.297 33.1608 88.983 35.1914 88.4091 37.4763C86.7424 36.3066 84.7553 35.6799 82.7192 35.6816C79.7825 35.7867 77.0059 37.0464 74.9928 39.187C72.9796 41.3277 71.8926 44.1763 71.9678 47.1139C71.9633 48.3365 72.177 49.5502 72.5991 50.6977C69.8856 51.0707 67.4061 52.4345 65.6379 54.5263C63.8698 56.6182 62.9381 59.2902 63.0221 62.0279C63.0078 63.2893 63.2226 64.5429 63.6562 65.7275C62.0089 66.7791 60.6532 68.2286 59.714 69.9424C58.7748 71.6562 58.2825 73.579 58.2825 75.5333C58.2825 77.4876 58.7748 79.4103 59.714 81.1241C60.6532 82.8379 62.0089 84.2875 63.6562 85.3391C63.2228 86.5228 63.008 87.7754 63.0221 89.0359C62.9568 91.7516 63.8833 94.3981 65.6283 96.48C67.3733 98.562 69.8172 99.9367 72.5026 100.347C72.1657 101.474 71.9885 102.644 71.9761 103.82C71.8792 106.775 72.9557 109.647 74.9703 111.81C76.9849 113.973 79.7738 115.25 82.7274 115.363C84.7636 115.365 86.7508 114.738 88.4174 113.568C88.9913 115.853 90.3053 117.884 92.1544 119.343C94.0035 120.803 96.2838 121.61 98.6394 121.637H98.7414C100.846 121.537 102.828 120.62 104.267 119.08C105.705 117.541 106.486 115.501 106.444 113.395V37.6499Z" fill="#E87A72"/>
<path d="M63.6669 85.323C63.2269 86.504 63.0119 87.757 63.0329 89.0171C62.987 91.3158 63.6432 93.5739 64.914 95.49C66.1849 97.406 68.0098 98.889 70.1453 99.7409C69.3773 98.1116 68.9818 96.3318 68.9875 94.5306C68.9665 93.2705 69.1815 92.0176 69.6215 90.8366C67.9742 89.7864 66.6182 88.3378 65.6788 86.6249C64.7395 84.912 64.247 82.9899 64.247 81.0363C64.247 79.0827 64.7395 77.1606 65.6788 75.4477C66.6182 73.7347 67.9742 72.2862 69.6215 71.236C69.1815 70.055 68.9665 68.8021 68.9875 67.542C68.8975 64.8045 69.8257 62.1309 71.5926 60.0381C73.3595 57.9453 75.8397 56.582 78.5534 56.2117C78.1427 55.0619 77.9374 53.8488 77.9469 52.6279C77.8643 49.6921 78.9449 46.8426 80.9534 44.6998C82.9619 42.557 85.7357 41.2945 88.6707 41.1874C90.7109 41.1898 92.7018 41.815 94.3772 42.9793C94.9562 40.6978 96.273 38.6716 98.1226 37.2158C99.9722 35.76 102.251 34.9563 104.605 34.9295H104.687C105.143 34.9285 105.597 34.9841 106.038 35.0949C105.58 33.496 104.625 32.0842 103.312 31.0634C101.999 30.0426 100.395 29.4657 98.7329 29.416H98.6502C96.2966 29.4432 94.018 30.2471 92.1685 31.7029C90.3189 33.1586 89.0021 35.1845 88.4226 37.4657C86.7454 36.3053 84.7557 35.6805 82.7161 35.6739C79.7785 35.7803 77.0015 37.0416 74.9884 39.1838C72.9753 41.3259 71.8888 44.1758 71.9648 47.1144C71.9646 48.3369 72.1792 49.5499 72.5988 50.6982C69.8851 51.0685 67.405 52.4318 65.6381 54.5246C63.8711 56.6174 62.9429 59.291 63.0329 62.0285C63.0119 63.2886 63.2269 64.5415 63.6669 65.7225C62.019 66.7722 60.6624 68.2206 59.7226 69.9336C58.7827 71.6466 58.29 73.5689 58.29 75.5228C58.29 77.4767 58.7827 79.399 59.7226 81.112C60.6624 82.825 62.019 84.2733 63.6669 85.323Z" fill="#D66E6B"/>
<path d="M98.7551 123.019C96.3832 123.009 94.0667 122.301 92.0945 120.983C90.1223 119.665 88.5816 117.796 87.6647 115.608C86.1242 116.353 84.4355 116.74 82.7246 116.741C80.892 116.632 79.1039 116.133 77.4798 115.277C75.8557 114.421 74.4331 113.228 73.3072 111.778C72.1813 110.328 71.3781 108.654 70.9512 106.869C70.5243 105.083 70.4837 103.227 70.8319 101.425C68.1482 100.657 65.7927 99.0251 64.1309 96.7821C62.4692 94.5392 61.5939 91.8106 61.6409 89.0195C61.6356 87.9642 61.7662 86.9125 62.0296 85.8906C60.4216 84.6712 59.1206 83.0931 58.2304 81.2821C57.3402 79.471 56.8853 77.477 56.9021 75.459C56.8928 73.458 57.3517 71.4825 58.242 69.6904C59.1323 67.8983 60.4294 66.3392 62.0296 65.1377C61.7679 64.122 61.6373 63.077 61.6409 62.0281C61.5758 59.2284 62.4477 56.4872 64.1184 54.2397C65.789 51.9922 68.1626 50.3672 70.8623 49.6227C70.6823 48.8022 70.5899 47.965 70.5866 47.1251C70.5028 43.8198 71.7322 40.6161 74.0057 38.2155C76.2792 35.8149 79.4114 34.4131 82.7163 34.3172C84.4272 34.3192 86.1157 34.7064 87.6564 35.4502C88.5604 33.2775 90.0815 31.4176 92.0316 30.1005C93.9817 28.7834 96.2752 28.0671 98.6283 28.04C101.118 28.1101 103.48 29.1605 105.2 30.9627C106.919 32.765 107.858 35.1733 107.811 37.6639V113.395C107.862 115.865 106.942 118.257 105.249 120.056C103.556 121.856 101.224 122.92 98.7551 123.019ZM88.4173 112.201C88.72 112.202 89.0142 112.302 89.2544 112.486C89.4945 112.67 89.6673 112.929 89.746 113.221C90.2496 115.209 91.3931 116.976 93.0003 118.25C94.6074 119.524 96.5889 120.234 98.6393 120.27C100.398 120.203 102.06 119.444 103.263 118.159C104.466 116.873 105.114 115.166 105.065 113.406V37.6501C105.119 35.9033 104.484 34.2054 103.298 32.9216C102.113 31.6379 100.47 30.8709 98.7248 30.7858C96.6623 30.81 94.6654 31.5138 93.0435 32.7883C91.4217 34.0627 90.2656 35.8365 89.7543 37.8348C89.6964 38.0489 89.5878 38.2458 89.4375 38.4089C89.2873 38.5721 89.0999 38.6965 88.8912 38.7717C88.6826 38.8469 88.4589 38.8707 88.2392 38.841C88.0194 38.8113 87.81 38.7291 87.6289 38.6012C86.1942 37.5985 84.4859 37.0615 82.7356 37.0629C80.162 37.1592 77.7313 38.2706 75.9748 40.1541C74.2184 42.0376 73.2792 44.54 73.3626 47.114C73.3616 48.1723 73.5483 49.2223 73.914 50.2154C73.988 50.4126 74.0159 50.6241 73.9954 50.8337C73.975 51.0433 73.9067 51.2454 73.796 51.4245C73.6853 51.6037 73.535 51.7551 73.3566 51.8671C73.1783 51.9791 72.9766 52.0487 72.7672 52.0707C70.3858 52.3972 68.2107 53.597 66.6641 55.437C65.1175 57.277 64.3098 59.626 64.3977 62.0281C64.3876 63.1248 64.5743 64.2145 64.949 65.2452C65.0593 65.5453 65.0619 65.8744 64.9563 66.1761C64.8507 66.4778 64.6434 66.7335 64.3701 66.8993C62.9265 67.8284 61.7391 69.105 60.9168 70.612C60.0945 72.1191 59.6636 73.8084 59.6636 75.5252C59.6636 77.242 60.0945 78.9313 60.9168 80.4383C61.7391 81.9454 62.9265 83.222 64.3701 84.1511C64.6434 84.3169 64.8507 84.5725 64.9563 84.8742C65.0619 85.176 65.0593 85.5051 64.949 85.8051C64.5741 86.8349 64.3874 87.9237 64.3977 89.0195C64.333 91.3996 65.1365 93.722 66.6583 95.5532C68.1801 97.3845 70.3162 98.5994 72.6679 98.9714C72.8646 98.9961 73.0536 99.063 73.222 99.1674C73.3905 99.2719 73.5344 99.4114 73.644 99.5765C73.7537 99.7416 73.8264 99.9284 73.8573 100.124C73.8882 100.32 73.8765 100.52 73.823 100.711C73.5187 101.717 73.3582 102.761 73.3461 103.812C73.2482 106.401 74.1792 108.924 75.9355 110.828C77.6919 112.733 80.1307 113.865 82.7191 113.976C84.4694 113.978 86.1779 113.441 87.6123 112.438C87.8495 112.277 88.1308 112.195 88.4173 112.201Z" fill="#323C6B"/>
<path d="M89.6302 53.8759H89.4869C89.3068 53.8573 89.1321 53.8034 88.9728 53.7173C88.8135 53.6311 88.6727 53.5144 88.5585 53.3739C88.4444 53.2333 88.359 53.0717 88.3073 52.8981C88.2556 52.7246 88.2387 52.5425 88.2574 52.3624C88.301 51.4963 88.5289 50.6494 88.9259 49.8783C89.3228 49.1073 89.8797 48.4297 90.5593 47.891C92.0982 46.862 93.969 46.4523 95.7971 46.7441C96.1553 46.8111 96.4724 47.0172 96.679 47.3174C96.8857 47.6175 96.9651 47.9873 96.8998 48.3458C96.8288 48.7003 96.6231 49.0133 96.3258 49.219C96.0286 49.4247 95.6631 49.507 95.3064 49.4485C94.2299 49.2839 93.1301 49.5119 92.2078 50.0908C91.8386 50.4054 91.5402 50.7944 91.3321 51.2325C91.124 51.6706 91.0109 52.1477 91.0003 52.6326C90.9668 52.9728 90.8081 53.2885 90.5549 53.5182C90.3017 53.748 89.9721 53.8755 89.6302 53.8759Z" fill="#323C6B"/>
<path d="M82.3637 65.3355C82.1573 65.3356 81.9535 65.2893 81.7675 65.2001C81.5814 65.1108 81.4177 64.981 81.2885 64.82C80.5863 63.9849 79.6085 63.4285 78.5318 63.2514C78.0477 63.2451 77.5677 63.3399 77.1224 63.5297C76.6771 63.7196 76.2764 64.0004 75.9459 64.3541C75.8147 64.4854 75.6583 64.5887 75.4861 64.658C75.3139 64.7273 75.1295 64.7611 74.944 64.7575C74.7584 64.7538 74.5755 64.7126 74.4063 64.6365C74.237 64.5605 74.0848 64.451 73.9589 64.3146C73.8329 64.1783 73.7358 64.0179 73.6734 63.8432C73.6109 63.6684 73.5844 63.4828 73.5954 63.2975C73.6065 63.1123 73.6548 62.9311 73.7375 62.765C73.8202 62.5988 73.9356 62.4511 74.0768 62.3307C74.6813 61.7075 75.4125 61.2213 76.221 60.905C77.0295 60.5888 77.8965 60.4498 78.7633 60.4974C80.5978 60.7408 82.2721 61.6696 83.4498 63.0971C83.6111 63.3001 83.7119 63.5446 83.7405 63.8024C83.7691 64.0601 83.7244 64.3208 83.6115 64.5543C83.4987 64.7878 83.3222 64.9847 83.1024 65.1224C82.8827 65.2601 82.6285 65.333 82.3692 65.3328L82.3637 65.3355Z" fill="#323C6B"/>
<path d="M81.6383 86.9625C81.432 86.9625 81.2282 86.9162 81.0421 86.827C80.856 86.7378 80.6924 86.6079 80.5632 86.447C79.861 85.6118 78.8831 85.0554 77.8064 84.8784C77.3223 84.8713 76.842 84.9658 76.3967 85.1557C75.9513 85.3457 75.5506 85.6268 75.2206 85.9811C75.0893 86.1123 74.9329 86.2157 74.7608 86.285C74.5886 86.3543 74.4042 86.3881 74.2186 86.3844C74.0331 86.3807 73.8502 86.3396 73.6809 86.2635C73.5116 86.1874 73.3595 86.0779 73.2335 85.9416C73.1076 85.8052 73.0105 85.6449 72.9481 85.4701C72.8856 85.2953 72.8591 85.1097 72.8701 84.9245C72.8811 84.7392 72.9294 84.5581 73.0122 84.3919C73.0949 84.2258 73.2103 84.0781 73.3515 83.9576C73.9559 83.3344 74.6871 82.8483 75.4956 82.532C76.3041 82.2157 77.1711 82.0767 78.038 82.1244C79.8725 82.3678 81.5468 83.2966 82.7245 84.724C82.8858 84.9271 82.9866 85.1716 83.0152 85.4293C83.0438 85.6871 82.9991 85.9477 82.8862 86.1812C82.7733 86.4147 82.5969 86.6116 82.3771 86.7494C82.1574 86.8871 81.9032 86.96 81.6438 86.9597L81.6383 86.9625Z" fill="#323C6B"/>
<path d="M95.3175 103.38C95.0553 103.38 94.7987 103.305 94.5775 103.165C94.3563 103.024 94.1798 102.823 94.0686 102.586C93.5852 101.608 92.7662 100.837 91.7612 100.413C91.2921 100.291 90.8024 100.27 90.3243 100.35C89.8463 100.431 89.3908 100.612 88.9879 100.882C88.8295 100.979 88.653 101.043 88.4693 101.07C88.2855 101.097 88.0981 101.087 87.9185 101.039C87.7388 100.992 87.5705 100.909 87.4238 100.795C87.277 100.681 87.1548 100.539 87.0644 100.377C86.9741 100.214 86.9175 100.035 86.898 99.8507C86.8785 99.666 86.8966 99.4792 86.9511 99.3017C87.0056 99.1241 87.0955 98.9593 87.2153 98.8174C87.335 98.6754 87.4823 98.5591 87.6482 98.4755C88.3828 98.0154 89.2068 97.7167 90.0657 97.5993C90.9245 97.4819 91.7985 97.5485 92.6296 97.7945C94.3524 98.4648 95.7598 99.759 96.5718 101.42C96.6479 101.584 96.6908 101.762 96.6982 101.943C96.7056 102.124 96.6773 102.304 96.6148 102.474C96.5523 102.644 96.457 102.8 96.3342 102.933C96.2114 103.067 96.0635 103.174 95.8991 103.25C95.7172 103.336 95.5185 103.38 95.3175 103.38Z" fill="#323C6B"/>
<path d="M88.2575 80.319C87.9973 80.3187 87.7424 80.2448 87.5224 80.1058C87.3023 79.9668 87.1262 79.7683 87.0142 79.5333C86.6017 78.7703 86.3566 77.9282 86.2953 77.063C86.234 76.1978 86.3578 75.3295 86.6586 74.516C87.4379 72.8405 88.8213 71.5211 90.5319 70.8219C90.8709 70.6973 91.2453 70.7108 91.5746 70.8594C91.9038 71.008 92.1615 71.2799 92.2923 71.6166C92.4231 71.9533 92.4165 72.3279 92.2739 72.6598C92.1313 72.9917 91.8641 73.2543 91.5298 73.3912C90.5233 73.811 89.7007 74.5779 89.2114 75.5525C89.0572 76.012 89.002 76.4988 89.0496 76.9811C89.0971 77.4634 89.2462 77.9301 89.4871 78.3506C89.5871 78.5607 89.6323 78.7926 89.6186 79.0248C89.6049 79.257 89.5326 79.482 89.4085 79.6787C89.2843 79.8755 89.1125 80.0376 88.9088 80.15C88.7052 80.2625 88.4764 80.3215 88.2438 80.3217L88.2575 80.319Z" fill="#323C6B"/>
<path d="M49.9331 190.085C46.1406 190.167 42.3848 189.327 38.9888 187.637C38.6645 187.468 38.4208 187.177 38.3112 186.828C38.2016 186.479 38.2351 186.1 38.4043 185.776C38.5736 185.452 38.8647 185.208 39.2137 185.099C39.5627 184.989 39.9409 185.022 40.2652 185.192C44.8756 187.313 50.0371 187.927 55.0166 186.948C57.2716 186.633 59.2316 186.38 60.9519 186.181C61.3137 186.145 61.6755 186.251 61.9605 186.477C62.2455 186.703 62.4315 187.031 62.4791 187.392C62.4998 187.572 62.4849 187.754 62.4351 187.928C62.3854 188.102 62.3018 188.265 62.1892 188.407C62.0765 188.548 61.937 188.667 61.7786 188.755C61.6202 188.842 61.4461 188.898 61.2661 188.919C59.568 189.115 57.63 189.365 55.3998 189.677C53.5891 189.939 51.7626 190.075 49.9331 190.085Z" fill="#323C6B"/>
<path d="M32.9652 181.34C32.7197 181.341 32.4786 181.275 32.2668 181.151C32.0551 181.027 31.8802 180.849 31.7605 180.635C31.3056 179.807 30.9167 178.945 30.5971 178.057C30.4703 177.714 30.4848 177.335 30.6376 177.003C30.7904 176.671 31.0688 176.413 31.4117 176.286C31.7546 176.159 32.1339 176.174 32.466 176.326C32.7982 176.479 33.0561 176.758 33.1829 177.1C33.4523 177.854 33.7814 178.585 34.1671 179.287C34.2845 179.496 34.3449 179.733 34.3423 179.974C34.3397 180.214 34.2743 180.45 34.1525 180.657C34.0307 180.865 33.8568 181.037 33.648 181.156C33.4392 181.275 33.2029 181.338 32.9624 181.338L32.9652 181.34Z" fill="#323C6B"/>
<path d="M186.282 65.7029C185.946 65.7057 185.62 65.5854 185.366 65.3645C185.112 65.1436 184.947 64.8374 184.904 64.5037C183.897 56.7401 181.617 49.1956 178.155 42.174C177.633 41.1246 177.113 40.1284 176.595 39.1856C176.429 38.8658 176.394 38.4937 176.499 38.1489C176.604 37.8041 176.84 37.5142 177.156 37.3411C177.472 37.1681 177.844 37.1258 178.191 37.2232C178.538 37.3206 178.833 37.5501 179.013 37.8624C179.546 38.8346 180.083 39.8638 180.625 40.95C184.223 48.2475 186.593 56.088 187.641 64.1563C187.665 64.3361 187.653 64.5188 187.606 64.6939C187.558 64.869 187.477 65.0331 187.367 65.1767C187.256 65.3204 187.118 65.4408 186.961 65.5311C186.804 65.6214 186.63 65.6798 186.45 65.7029C186.394 65.7064 186.338 65.7064 186.282 65.7029Z" fill="#323C6B"/>
<path d="M186.872 73.9727C186.506 73.9727 186.156 73.8275 185.897 73.569C185.639 73.3105 185.494 72.9599 185.494 72.5944C185.494 72.0733 185.477 71.5496 185.455 71.0285C185.44 70.6633 185.571 70.3072 185.818 70.0384C186.066 69.7695 186.41 69.6101 186.775 69.595C186.957 69.5873 187.137 69.6153 187.308 69.6774C187.478 69.7396 187.634 69.8348 187.767 69.9574C187.901 70.0801 188.009 70.2278 188.085 70.3922C188.161 70.5566 188.204 70.7344 188.212 70.9155C188.234 71.4669 188.245 72.0182 188.25 72.5696C188.25 72.9351 188.105 73.2857 187.847 73.5442C187.588 73.8027 187.238 73.9479 186.872 73.9479V73.9727Z" fill="#323C6B"/>
<path d="M100.98 60.4649L101.002 79.503C101.002 79.9687 100.817 80.4154 100.488 80.7447C100.159 81.074 99.7119 81.2591 99.2461 81.2591C98.7804 81.2591 98.3337 81.074 98.0044 80.7447C97.6751 80.4154 97.4901 79.9687 97.4901 79.503L97.468 60.4373C97.4664 60.0181 97.6207 59.6133 97.9008 59.3015C98.1377 59.0345 98.45 58.8458 98.7965 58.7603C99.143 58.6748 99.5073 58.6965 99.8411 58.8227C100.175 58.9488 100.463 59.1734 100.666 59.4666C100.869 59.7599 100.979 60.108 100.98 60.4649Z" fill="white"/>
<path d="M97.4759 54.7809V53.6533C97.4715 53.439 97.51 53.2259 97.589 53.0266C97.6681 52.8273 97.7862 52.6458 97.9363 52.4927C98.0971 52.2994 98.2999 52.1453 98.5291 52.0422C98.7584 51.939 99.0082 51.8894 99.2595 51.8973C99.7212 51.9024 100.162 52.0899 100.486 52.4189C100.81 52.7479 100.99 53.1917 100.988 53.6533V54.7809C100.988 55.2466 100.803 55.6933 100.474 56.0226C100.144 56.3519 99.6977 56.5369 99.232 56.5369C98.7662 56.5369 98.3196 56.3519 97.9903 56.0226C97.6609 55.6933 97.4759 55.2466 97.4759 54.7809Z" fill="white"/>
</svg>
