<svg width="204" height="204" viewBox="0 0 204 204" fill="none" xmlns="http://www.w3.org/2000/svg">
<path d="M133.879 123.414L182.836 104.08C185.4 102.99 188.262 102.819 190.938 103.595C193.614 104.372 195.94 106.049 197.522 108.342C198.426 109.654 199.063 111.131 199.395 112.689C199.727 114.248 199.747 115.856 199.455 117.422C199.164 118.989 198.565 120.482 197.694 121.816C196.824 123.15 195.698 124.299 194.382 125.197L116.851 180.994C114.738 182.327 112.329 183.12 109.837 183.302C107.345 183.483 104.847 183.049 102.562 182.036L47.0496 157.575V97.183C56.7892 93.2105 74.1016 86.0126 98.6478 102.912L128.903 104.05C131.599 104.153 134.151 105.297 136.022 107.241C137.894 109.185 138.94 111.778 138.941 114.476C138.941 115.847 138.671 117.204 138.146 118.47C137.622 119.737 136.853 120.887 135.884 121.856C134.914 122.825 133.764 123.594 132.498 124.119C131.231 124.643 129.874 124.913 128.503 124.913H99.3507" fill="#FCD462"/>
<path d="M199.672 115.177C199.674 117.15 199.193 119.094 198.271 120.839C197.348 122.583 196.012 124.075 194.379 125.184L116.859 180.98C114.746 182.323 112.333 183.121 109.837 183.303C107.34 183.486 104.837 183.048 102.551 182.028L47.0579 157.576V150.298L98.7471 173.069C101.028 174.089 103.527 174.527 106.019 174.344C108.511 174.162 110.919 173.363 113.027 172.021L190.575 116.224C192.174 115.13 193.487 113.667 194.404 111.959C195.32 110.251 195.813 108.348 195.84 106.41C196.479 106.981 197.043 107.629 197.522 108.34C198.911 110.35 199.66 112.733 199.672 115.177Z" fill="#F7BE56"/>
<path d="M42.7293 88.8652H16.5125C14.1313 88.8652 12.2009 90.7956 12.2009 93.1768V162.336C12.2009 164.717 14.1313 166.647 16.5125 166.647H42.7293C45.1105 166.647 47.0408 164.717 47.0408 162.336V93.1768C47.0408 90.7956 45.1105 88.8652 42.7293 88.8652Z" fill="#27CCBC"/>
<path d="M47.0302 154.074V162.344C47.0288 163.485 46.5752 164.578 45.769 165.384C44.9628 166.19 43.8698 166.644 42.7297 166.645H16.5129C15.3728 166.644 14.2798 166.19 13.4736 165.384C12.6674 164.578 12.2139 163.485 12.2124 162.344V154.074C12.2139 155.214 12.6674 156.307 13.4736 157.114C14.2798 157.92 15.3728 158.373 16.5129 158.375H42.7297C43.8698 158.373 44.9628 157.92 45.769 157.114C46.5752 156.307 47.0288 155.214 47.0302 154.074Z" fill="#21B3A9"/>
<path d="M29.6212 156.042C32.6875 156.042 35.1733 153.556 35.1733 150.49C35.1733 147.423 32.6875 144.938 29.6212 144.938C26.5549 144.938 24.0691 147.423 24.0691 150.49C24.0691 153.556 26.5549 156.042 29.6212 156.042Z" fill="#EEEFEE"/>
<path d="M29.6212 157.412C28.2504 157.412 26.9105 157.005 25.7708 156.244C24.6311 155.482 23.7428 154.4 23.2182 153.133C22.6937 151.867 22.5564 150.474 22.8238 149.129C23.0913 147.785 23.7513 146.55 24.7206 145.581C25.6898 144.611 26.9247 143.951 28.2691 143.684C29.6135 143.417 31.007 143.554 32.2734 144.078C33.5397 144.603 34.6221 145.491 35.3837 146.631C36.1452 147.771 36.5517 149.111 36.5517 150.481C36.5495 152.319 35.8186 154.08 34.5193 155.379C33.2201 156.679 31.4586 157.41 29.6212 157.412ZM29.6212 146.308C28.7957 146.308 27.9887 146.552 27.3024 147.011C26.616 147.47 26.081 148.121 25.7651 148.884C25.4492 149.647 25.3666 150.486 25.5276 151.296C25.6887 152.105 26.0862 152.849 26.6699 153.433C27.2536 154.016 27.9973 154.414 28.8069 154.575C29.6165 154.736 30.4557 154.653 31.2184 154.337C31.981 154.021 32.6329 153.486 33.0915 152.8C33.5501 152.114 33.7949 151.307 33.7949 150.481C33.7905 149.377 33.349 148.319 32.5669 147.539C31.7849 146.759 30.7258 146.32 29.6212 146.319V146.308Z" fill="#323C6B"/>
<path d="M178.602 56.2375C178.602 70.6112 149.083 94.9506 149.083 94.9506C149.083 94.9506 119.536 70.603 119.536 56.2375C119.532 52.8112 120.555 49.4623 122.471 46.6224C124.388 43.7824 127.112 41.5815 130.29 40.3032C133.469 39.0248 136.958 38.7277 140.308 39.45C143.657 40.1723 146.713 41.881 149.083 44.3559C151.45 41.8809 154.504 40.1721 157.852 39.4499C161.2 38.7276 164.687 39.0251 167.864 40.3038C171.041 41.5826 173.763 43.7841 175.676 46.6242C177.59 49.4643 178.609 52.8127 178.602 56.2375Z" fill="#FE7058"/>
<path d="M178.61 56.239C178.61 70.6017 149.085 94.9439 149.085 94.9439C149.085 94.9439 147.651 93.7585 145.418 91.7461C153.716 84.2201 170.34 67.8174 170.34 57.0385C170.339 52.9194 168.857 48.9379 166.164 45.8205C163.472 42.703 159.749 40.6574 155.674 40.0569C157.534 39.4021 159.491 39.0665 161.463 39.0645C166.013 39.071 170.375 40.8835 173.59 44.1037C176.805 47.3239 178.611 51.6886 178.61 56.239Z" fill="#EA6453"/>
<path d="M186.494 61.2518C186.292 61.252 186.092 61.2075 185.908 61.1216C185.725 61.0356 185.562 60.9102 185.433 60.7544C185.303 60.5986 185.21 60.4161 185.159 60.22C185.108 60.0239 185.101 59.8189 185.138 59.6198C185.361 58.5038 185.48 57.3696 185.494 56.2317C185.486 52.8302 184.759 49.4688 183.358 46.3689C181.958 43.269 179.917 40.5008 177.37 38.2467C177.219 38.1317 177.094 37.9872 177.002 37.8219C176.91 37.6566 176.854 37.4741 176.835 37.2859C176.817 37.0977 176.837 36.9077 176.895 36.7277C176.954 36.5477 177.048 36.3817 177.173 36.2399C177.299 36.098 177.452 35.9835 177.623 35.9033C177.794 35.8232 177.98 35.7791 178.169 35.774C178.358 35.7688 178.546 35.8026 178.722 35.8732C178.897 35.9438 179.056 36.0498 179.189 36.1846C182.031 38.6972 184.307 41.7833 185.87 45.2397C187.432 48.696 188.244 52.4442 188.253 56.2372C188.24 57.5455 188.104 58.8496 187.848 60.1325C187.788 60.4474 187.62 60.7314 187.373 60.9357C187.126 61.1399 186.815 61.2517 186.494 61.2518Z" fill="#323C6B"/>
<path d="M183.729 69.1779C183.495 69.1777 183.264 69.1175 183.059 69.0032C182.854 68.8888 182.682 68.724 182.558 68.5244C182.435 68.3248 182.364 68.097 182.354 67.8626C182.343 67.6281 182.392 67.3948 182.497 67.1848C182.676 66.8292 182.847 66.4708 183.01 66.1124C183.08 65.9413 183.184 65.7862 183.316 65.6561C183.447 65.526 183.603 65.4238 183.775 65.3554C183.947 65.2871 184.131 65.254 184.316 65.2582C184.501 65.2623 184.683 65.3037 184.852 65.3798C185.02 65.4558 185.172 65.565 185.297 65.7009C185.423 65.8368 185.52 65.9965 185.582 66.1706C185.645 66.3447 185.671 66.5296 185.661 66.7142C185.65 66.8989 185.603 67.0795 185.521 67.2455C185.347 67.6342 185.157 68.0256 184.97 68.4143C184.855 68.6448 184.678 68.8384 184.459 68.9734C184.239 69.1084 183.987 69.1792 183.729 69.1779Z" fill="#323C6B"/>
<path d="M90.697 186.522C90.499 186.521 90.3034 186.478 90.1236 186.395L88.6929 185.736C88.5233 185.664 88.37 185.558 88.2419 185.426C88.1139 185.293 88.0137 185.136 87.9474 184.964C87.881 184.792 87.8498 184.609 87.8557 184.425C87.8615 184.24 87.9042 184.059 87.9813 183.892C88.0584 183.724 88.1682 183.574 88.3044 183.45C88.4406 183.326 88.6003 183.23 88.7741 183.169C88.9478 183.107 89.1322 183.081 89.3162 183.092C89.5001 183.103 89.68 183.151 89.8452 183.233L91.276 183.892C91.5612 184.024 91.7929 184.249 91.9327 184.53C92.0725 184.811 92.1121 185.132 92.0449 185.438C91.9777 185.745 91.8077 186.02 91.5631 186.217C91.3185 186.414 91.0139 186.522 90.6998 186.522H90.697Z" fill="#323C6B"/>
<path d="M83.8577 183.368C83.6587 183.368 83.4622 183.324 83.2815 183.241L63.0194 173.896C62.6874 173.742 62.4299 173.464 62.3035 173.121C62.1771 172.778 62.1922 172.398 62.3453 172.066C62.4985 171.735 62.7773 171.477 63.1203 171.351C63.4633 171.224 63.8425 171.239 64.1744 171.392L84.4366 180.738C84.722 180.87 84.9539 181.095 85.0937 181.376C85.2335 181.658 85.2728 181.979 85.2053 182.286C85.1377 182.593 84.9672 182.867 84.7221 183.064C84.477 183.261 84.172 183.368 83.8577 183.368Z" fill="#323C6B"/>
<path d="M149.085 96.3255C148.765 96.3256 148.455 96.2145 148.209 96.0112C146.982 94.9995 118.16 71.0846 118.16 56.234C118.157 52.651 119.192 49.1441 121.141 46.1375C123.09 43.1309 125.868 40.7536 129.14 39.2935C132.412 37.8333 136.037 37.3527 139.576 37.9101C143.116 38.4674 146.418 40.0386 149.082 42.4336C152.47 39.36 156.886 37.6655 161.46 37.6837C166.376 37.6932 171.086 39.6523 174.559 43.1311C178.032 46.6098 179.982 51.3241 179.983 56.2395C179.983 71.0901 151.189 95.005 149.962 96.0167C149.714 96.218 149.404 96.3271 149.085 96.3255ZM136.68 40.4405C132.495 40.4493 128.485 42.1177 125.53 45.0796C122.574 48.0415 120.914 52.055 120.914 56.2395C120.914 68.4491 144.231 89.0035 149.082 93.1497C153.934 89.0145 177.223 68.4491 177.223 56.2395C177.222 52.056 175.561 48.0439 172.606 45.0831C169.65 42.1224 165.641 40.4548 161.458 40.446C159.33 40.4382 157.223 40.8658 155.266 41.7026C153.309 42.5394 151.545 43.7676 150.08 45.3117C149.952 45.4456 149.798 45.5522 149.627 45.6251C149.457 45.6981 149.273 45.7359 149.088 45.7362C148.903 45.7362 148.719 45.6989 148.549 45.6264C148.378 45.5539 148.224 45.4478 148.096 45.3144C146.623 43.7703 144.852 42.5417 142.89 41.7033C140.928 40.865 138.816 40.4344 136.683 40.4377L136.68 40.4405Z" fill="#323C6B"/>
<path d="M108.718 184.715C106.404 184.716 104.115 184.231 102 183.292L46.4923 158.832C46.2466 158.724 46.0375 158.548 45.8906 158.324C45.7437 158.099 45.6654 157.837 45.6653 157.569V97.1795C45.6655 96.9053 45.7474 96.6374 45.9006 96.41C46.0538 96.1827 46.2713 96.0062 46.5254 95.9031C56.3367 91.903 74.2501 84.6004 99.094 101.543L128.95 102.665C130.941 102.739 132.881 103.314 134.59 104.339C136.299 105.363 137.721 106.803 138.724 108.525C139.726 110.246 140.277 112.194 140.325 114.186C140.373 116.178 139.917 118.149 138.998 119.917L182.331 102.795C185.409 101.497 188.858 101.389 192.01 102.491C195.163 103.593 197.794 105.827 199.392 108.759C200.99 111.691 201.443 115.112 200.661 118.359C199.879 121.606 197.919 124.446 195.161 126.329L117.658 182.11C114.985 183.807 111.884 184.711 108.718 184.715ZM48.4248 156.673L103.119 180.773C105.196 181.696 107.468 182.093 109.735 181.928C112.002 181.763 114.193 181.041 116.114 179.827L193.579 124.074C195.781 122.581 197.349 120.321 197.977 117.734C198.604 115.148 198.247 112.421 196.974 110.084C195.701 107.747 193.604 105.968 191.091 105.092C188.578 104.217 185.829 104.308 183.379 105.348L134.538 124.645C132.715 125.73 130.633 126.302 128.511 126.299H99.3531C98.9876 126.299 98.637 126.154 98.3785 125.895C98.12 125.637 97.9748 125.286 97.9748 124.921C97.9748 124.555 98.12 124.205 98.3785 123.946C98.637 123.688 98.9876 123.542 99.3531 123.542H128.509C130.103 123.544 131.669 123.123 133.046 122.321C133.123 122.263 133.205 122.213 133.292 122.172C134.938 121.148 136.212 119.622 136.927 117.82C137.641 116.017 137.758 114.033 137.261 112.159C136.763 110.285 135.677 108.62 134.163 107.409C132.648 106.199 130.785 105.506 128.848 105.433L98.595 104.286C98.3334 104.277 98.08 104.192 97.8645 104.044C74.6195 88.0298 58.3491 94.0781 48.4248 98.1085V156.673Z" fill="#323C6B"/>
<path d="M42.7296 168.027H16.5156C15.0072 168.025 13.5612 167.425 12.4946 166.358C11.428 165.291 10.8279 163.845 10.8257 162.337V93.1782C10.8279 91.6698 11.428 90.2238 12.4946 89.1572C13.5612 88.0906 15.0072 87.4905 16.5156 87.4883H42.7296C44.238 87.4905 45.684 88.0906 46.7506 89.1572C47.8172 90.2238 48.4174 91.6698 48.4196 93.1782V162.337C48.4174 163.845 47.8172 165.291 46.7506 166.358C45.684 167.425 44.238 168.025 42.7296 168.027ZM16.5156 90.245C15.7377 90.2458 14.9917 90.5549 14.4414 91.1048C13.891 91.6546 13.5811 92.4003 13.5797 93.1782V162.337C13.5804 163.115 13.8897 163.86 14.4396 164.41C14.9895 164.96 15.7352 165.269 16.5129 165.27H42.7296C43.5073 165.269 44.253 164.96 44.8029 164.41C45.3528 163.86 45.6621 163.115 45.6628 162.337V93.1782C45.6614 92.4007 45.3519 91.6555 44.8021 91.1058C44.2523 90.556 43.5071 90.2465 42.7296 90.245H16.5156Z" fill="#323C6B"/>
<path d="M22.4534 102.895V124.072C22.4534 124.547 22.2646 125.003 21.9286 125.339C21.5925 125.675 21.1368 125.864 20.6615 125.864C20.1863 125.864 19.7305 125.675 19.3945 125.339C19.0584 125.003 18.8696 124.547 18.8696 124.072V102.895C18.8695 102.506 18.9954 102.128 19.2284 101.818C19.4614 101.507 19.7889 101.28 20.1618 101.171C20.5346 101.063 20.9327 101.078 21.2962 101.215C21.6597 101.351 21.969 101.602 22.1777 101.93C22.3673 102.215 22.4637 102.552 22.4534 102.895Z" fill="white"/>
<path d="M22.1777 129.388C22.3552 129.668 22.4507 129.993 22.4534 130.325V131.483C22.4534 131.958 22.2646 132.414 21.9286 132.75C21.5925 133.086 21.1368 133.275 20.6615 133.275C20.1863 133.275 19.7305 133.086 19.3945 132.75C19.0584 132.414 18.8696 131.958 18.8696 131.483V130.325C18.8693 130.09 18.9154 129.857 19.0053 129.639C19.0952 129.421 19.2272 129.224 19.3937 129.057C19.5601 128.891 19.7578 128.759 19.9754 128.669C20.1929 128.579 20.4261 128.533 20.6615 128.533C20.9669 128.531 21.2675 128.608 21.5336 128.758C21.7996 128.908 22.0217 129.125 22.1777 129.388Z" fill="white"/>
</svg>
