<svg width="114" height="114" viewBox="0 0 114 114" fill="none" xmlns="http://www.w3.org/2000/svg">
<path d="M100.637 48.9297H78.1579V60.8134H58.0585V72.1826H35.8639V82.0005H16.4438V107.837H100.637V48.9297Z" fill="#E7AA6C"/>
<path d="M95.637 48.9258H100.644V107.836H95.637V48.9258Z" fill="#D09865"/>
<path d="M16.4377 82.002H35.864V86.8547H16.4377V82.002Z" fill="#D09865"/>
<path d="M35.8638 72.1895H58.063V77.0267H35.8638V72.1895Z" fill="#D09865"/>
<path d="M58.0632 60.8203H78.1519V65.6576H58.0632V60.8203Z" fill="#D09865"/>
<path d="M78.1519 48.9258H100.644V53.7785H78.1519V48.9258Z" fill="#D09865"/>
<path d="M36.7743 62.8405L25.2203 77.1228C24.615 77.8218 23.7667 78.2648 22.8472 78.362C21.9277 78.4592 21.0056 78.2035 20.2674 77.6466C19.8822 77.3559 19.5586 76.9916 19.3152 76.5749C19.0719 76.1582 18.9137 75.6973 18.8497 75.219C18.7858 74.7406 18.8175 74.2544 18.9429 73.7884C19.0683 73.3224 19.285 72.8859 19.5804 72.5043L29.6817 58.6117L33.0662 30.8095L27.7144 33.1727L24.4038 38.9837C24.1962 39.3468 23.9143 39.662 23.5766 39.9086C23.2388 40.1553 22.8528 40.3279 22.4438 40.4152C22.0347 40.5024 21.6119 40.5023 21.2029 40.4149C20.7939 40.3275 20.4079 40.1548 20.0702 39.908C19.4963 39.489 19.0915 38.8781 18.9292 38.1862C18.767 37.4943 18.8581 36.7672 19.186 36.1367L23.3747 28.0812C23.6952 27.4648 24.1819 26.9504 24.7797 26.5962L33.9043 21.1904C34.6288 20.7611 35.443 20.5057 36.2828 20.4442C37.1227 20.3827 37.9654 20.5169 38.7447 20.8361L47.3979 24.3793C48.3831 24.7818 49.2288 25.4641 49.8304 26.342L53.4722 31.6584L60.6419 29.5771C61.3683 29.3611 62.1491 29.423 62.8325 29.7507C63.5158 30.0784 64.0529 30.6486 64.3392 31.3503C64.496 31.7346 64.5727 32.1468 64.5648 32.5617C64.5569 32.9767 64.4645 33.3857 64.2932 33.7637C64.122 34.1417 63.8754 34.4809 63.5686 34.7604C63.2619 35.04 62.9013 35.2541 62.509 35.3896L54.2425 38.2704C53.6197 38.4854 52.951 38.5313 52.3046 38.4033C51.6583 38.2752 51.0575 37.9779 50.5637 37.5417L46.8833 34.2927L45.9868 43.1339C45.9868 43.1339 46.0761 43.1678 46.2363 43.2371C48.393 44.1875 50.1945 45.7947 51.384 47.8293C52.5736 49.8639 53.0903 52.2222 52.8606 54.5678L51.8008 68.6129C51.755 69.1034 51.6117 69.5798 51.3792 70.0141C51.1467 70.4485 50.8298 70.832 50.4471 71.1421C50.0643 71.4523 49.6234 71.6828 49.1503 71.8201C48.6772 71.9575 48.1815 71.9989 47.6921 71.942C46.7339 71.8313 45.8568 71.3506 45.248 70.6022C44.6393 69.8539 44.3471 68.8973 44.4339 67.9366L45.3582 55.2841C45.4343 54.432 45.1876 53.5824 44.6669 52.9036C44.1461 52.2248 43.3895 51.7664 42.5467 51.6192C42.095 51.5402 41.632 51.553 41.1853 51.6569C40.7387 51.7609 40.3176 51.9538 39.9472 52.2241C39.5767 52.4945 39.2646 52.8367 39.0294 53.2304C38.7942 53.624 38.6408 54.0611 38.5783 54.5154L37.7788 60.6206C37.6659 61.4421 37.3169 62.2133 36.7743 62.8405Z" fill="#89C5CD"/>
<path d="M52.8561 54.5647L51.7931 68.599C51.7234 69.3874 51.4031 70.1328 50.8792 70.726C50.3553 71.3192 49.6552 71.7291 48.8815 71.8958C48.9462 71.6905 48.9875 71.4787 49.0048 71.2642L50.0677 57.2144C50.2926 54.8705 49.7737 52.5153 48.5847 50.4828C47.3957 48.4504 45.5968 46.844 43.4434 45.8915C43.2739 45.8144 42.6177 45.5279 42.6177 45.5279L43.8917 34.2989C43.9185 34.0635 44.0077 33.8396 44.1502 33.6504C44.2926 33.4611 44.4831 33.3135 44.7019 33.2226C44.9206 33.1318 45.1597 33.1011 45.3943 33.1338C45.6289 33.1665 45.8505 33.2613 46.0361 33.4085L47.0514 34.2126L45.9853 43.1339C45.9853 43.1339 46.0777 43.1647 46.2318 43.2263C48.3888 44.1785 50.1903 45.7871 51.3797 47.823C52.5691 49.8588 53.0858 52.2181 52.8561 54.5647Z" fill="#6EAAAD"/>
<path d="M64.5643 32.5047C64.5659 33.1385 64.3692 33.757 64.0018 34.2736C63.6344 34.7901 63.1147 35.1789 62.5154 35.3855L61.7452 35.6628C61.7606 35.5087 61.776 35.3393 61.776 35.1698C61.7737 34.7734 61.6953 34.3812 61.5449 34.0144C61.2626 33.3096 60.726 32.7365 60.0413 32.4084C59.3567 32.0803 58.5738 32.0212 57.8476 32.2428L53.0904 33.62C52.3843 33.8248 51.6315 33.8009 50.9397 33.5519C50.2479 33.3028 49.6527 32.8414 49.239 32.2335L47.0268 28.9984C46.4218 28.1209 45.5768 27.4362 44.5928 27.0265L35.9503 23.4833C35.1685 23.166 34.3242 23.033 33.4827 23.0944C32.6412 23.1559 31.8251 23.4101 31.0976 23.8376L23.1084 28.5917L23.3703 28.0833C23.6799 27.4826 24.1524 26.9813 24.7337 26.6368L33.9076 21.1971C34.6308 20.766 35.4446 20.5096 36.2843 20.4481C37.1241 20.3866 37.9665 20.5217 38.7449 20.8428L47.4027 24.386C48.3887 24.7849 49.2352 25.4654 49.8368 26.3425L53.4725 31.6574L60.636 29.5776C61.3622 29.3616 62.1429 29.4232 62.8262 29.7506C63.5095 30.0781 64.0467 30.6479 64.3333 31.3493C64.4836 31.716 64.5621 32.1083 64.5643 32.5047Z" fill="#6EAAAD"/>
<path d="M47.4099 19.7374C51.8304 19.4627 55.1913 15.6566 54.9166 11.2361C54.642 6.8156 50.8359 3.4547 46.4154 3.72932C41.9949 4.00394 38.634 7.81008 38.9086 12.2306C39.1832 16.6511 42.9894 20.012 47.4099 19.7374Z" fill="#89C5CD"/>
<path d="M54.9204 11.2295C55.0226 12.8427 54.6344 14.4491 53.8068 15.8376C52.9792 17.2261 51.7509 18.3317 50.2833 19.0092C50.9682 18.2288 51.4921 17.3208 51.8252 16.3374C52.1583 15.3539 52.294 14.3144 52.2244 13.2784C52.1597 12.2271 51.8883 11.1988 51.4257 10.2525C50.9631 9.30619 50.3184 8.4604 49.5285 7.76354C48.7386 7.06668 47.8191 6.53244 46.8225 6.19139C45.8259 5.85034 44.7718 5.70918 43.7206 5.77599C42.728 5.83211 41.7553 6.07789 40.8552 6.50004C41.5459 5.68505 42.395 5.01898 43.3511 4.54229C44.3071 4.0656 45.35 3.78825 46.4166 3.72707C47.4678 3.66026 48.5219 3.80142 49.5184 4.14247C50.515 4.48352 51.4346 5.01776 52.2244 5.71462C53.0143 6.41148 53.659 7.25728 54.1216 8.20359C54.5842 9.1499 54.8556 10.1782 54.9204 11.2295Z" fill="#6EAAAD"/>
<path d="M100.637 108.608H16.4439C16.2396 108.608 16.0436 108.527 15.8992 108.382C15.7547 108.238 15.6736 108.042 15.6736 107.838V82.0012C15.6736 81.7969 15.7547 81.601 15.8992 81.4566C16.0436 81.3121 16.2396 81.2309 16.4439 81.2309H35.0936V72.1833C35.0936 71.9791 35.1748 71.7831 35.3192 71.6387C35.4637 71.4942 35.6596 71.4131 35.8639 71.4131H57.2882V60.8157C57.2882 60.6114 57.3694 60.4155 57.5138 60.271C57.6583 60.1266 57.8542 60.0454 58.0585 60.0454H77.3876V48.9304C77.3876 48.7261 77.4688 48.5302 77.6132 48.3858C77.7577 48.2413 77.9536 48.1602 78.1579 48.1602H100.637C100.842 48.1602 101.038 48.2413 101.182 48.3858C101.327 48.5302 101.408 48.7261 101.408 48.9304V107.838C101.408 108.042 101.327 108.238 101.182 108.382C101.038 108.527 100.842 108.608 100.637 108.608ZM17.2157 107.067H99.8672V49.7007H78.9282V60.8157C78.9282 61.02 78.847 61.2159 78.7026 61.3604C78.5581 61.5048 78.3622 61.586 78.1579 61.586H58.8287V72.1833C58.8287 72.3876 58.7476 72.5836 58.6031 72.728C58.4587 72.8725 58.2628 72.9536 58.0585 72.9536H36.6342V82.0012C36.6342 82.2055 36.553 82.4014 36.4086 82.5459C36.2641 82.6903 36.0682 82.7715 35.8639 82.7715H17.2141L17.2157 107.067Z" fill="#323C6B"/>
<path d="M22.4566 79.1463C21.6319 79.1452 20.8241 78.9129 20.1247 78.4758C19.4253 78.0388 18.8624 77.4144 18.4999 76.6737C18.1374 75.9329 17.9897 75.1054 18.0737 74.285C18.1577 73.4645 18.4699 72.6841 18.975 72.0321L28.9454 58.3213L32.1374 32.0659L28.2568 33.7759L25.074 39.365C24.5863 40.2114 23.7869 40.8335 22.8467 41.0984C21.9064 41.3634 20.8998 41.2501 20.0419 40.7829C19.1841 40.3156 18.5429 39.5314 18.2555 38.5978C17.968 37.6642 18.0571 36.6551 18.5036 35.7863L22.6923 27.7277C23.0792 26.9838 23.6661 26.3628 24.3869 25.9345L33.5116 20.5288C34.3392 20.0409 35.2683 19.7507 36.2265 19.6807C37.1847 19.6107 38.1462 19.7628 39.0359 20.1252L47.6907 23.6684C48.8142 24.1277 49.7784 24.9065 50.4637 25.9083L53.7912 30.7657L60.4248 28.8385C61.3814 28.5594 62.4092 28.6647 63.2892 29.1321C64.1693 29.5995 64.8321 30.392 65.1366 31.3409C65.441 32.2897 65.363 33.3199 64.9191 34.2121C64.4753 35.1043 63.7007 35.788 62.7603 36.1175L54.4953 38.9952C53.7434 39.2544 52.9363 39.3097 52.1561 39.1554C51.3759 39.0012 50.6506 38.6429 50.0539 38.1171L47.4966 35.8602L46.8095 42.6386C49.0476 43.6845 50.9055 45.3999 52.1264 47.5475C53.3473 49.6951 53.8709 52.169 53.6249 54.6271L52.565 68.6583C52.4591 69.8385 51.8888 70.9283 50.9795 71.688C50.0702 72.4477 48.8963 72.815 47.7161 72.7092C46.5359 72.6034 45.4461 72.0331 44.6865 71.1237C43.9268 70.2144 43.5594 69.0405 43.6653 67.8603L44.5896 55.2279C44.6479 54.567 44.4571 53.9081 44.0547 53.3805C43.6522 52.853 43.0672 52.4948 42.4143 52.3764C42.0639 52.3139 41.7045 52.3229 41.3577 52.4029C41.0108 52.4828 40.6837 52.632 40.3959 52.8415C40.1082 53.051 39.8657 53.3164 39.6831 53.622C39.5005 53.9275 39.3815 54.2667 39.3333 54.6194L38.5353 60.7199C38.4053 61.6886 37.9964 62.5985 37.3583 63.3389L25.8181 77.612C25.4006 78.0939 24.8844 78.4803 24.3044 78.745C23.7244 79.0098 23.0942 79.1467 22.4566 79.1463ZM33.0663 30.0385C33.1759 30.0377 33.2844 30.0603 33.3845 30.1047C33.4847 30.1492 33.5742 30.2145 33.6471 30.2963C33.72 30.3781 33.7746 30.4745 33.8073 30.5791C33.84 30.6837 33.85 30.794 33.8366 30.9028L30.4505 58.7034C30.4345 58.8331 30.3857 58.9566 30.3088 59.0623L20.2074 72.9549C19.7216 73.5439 19.4897 74.3017 19.5627 75.0617C19.6356 75.8216 20.0075 76.5215 20.5964 77.0073C21.1854 77.4931 21.9432 77.725 22.7032 77.6521C23.4632 77.5791 24.163 77.2073 24.6488 76.6183L36.1798 62.356L36.1967 62.336C36.6422 61.8223 36.9286 61.1902 37.0209 60.5166L37.8189 54.416C37.8947 53.8596 38.0819 53.324 38.3691 52.8414C38.6564 52.3588 39.0379 51.939 39.491 51.6071C39.944 51.2751 40.4592 51.0378 41.0059 50.9092C41.5527 50.7807 42.1197 50.7636 42.6732 50.8589C43.7034 51.045 44.6273 51.6083 45.2645 52.4389C45.9017 53.2696 46.2065 54.3079 46.1193 55.3512L45.195 67.9836C45.1593 68.3664 45.1993 68.7524 45.3128 69.1197C45.4263 69.487 45.611 69.8283 45.8564 70.1242C46.1019 70.4201 46.4031 70.6648 46.7431 70.8443C47.0831 71.0237 47.455 71.1345 47.8378 71.1702C48.2206 71.2059 48.6066 71.1659 48.9739 71.0524C49.3412 70.9389 49.6826 70.7542 49.9785 70.5088C50.2744 70.2634 50.519 69.9621 50.6985 69.6221C50.878 69.2822 50.9887 68.9102 51.0244 68.5274L52.0843 54.4962C52.3076 52.3096 51.8313 50.1086 50.7239 48.21C49.6165 46.3115 47.9353 44.8133 45.9222 43.9311L45.7003 43.8387C45.5426 43.778 45.4092 43.6672 45.3207 43.5233C45.2322 43.3794 45.1934 43.2103 45.2104 43.0422L46.107 34.2088C46.121 34.0676 46.1738 33.933 46.2594 33.8199C46.3451 33.7067 46.4603 33.6195 46.5924 33.5677C46.7245 33.5159 46.8683 33.5016 47.008 33.5264C47.1477 33.5512 47.2779 33.614 47.3841 33.7081L51.0753 36.971C51.4669 37.3165 51.9431 37.552 52.4554 37.6535C52.9677 37.755 53.4977 37.7188 53.9915 37.5487L62.2565 34.6602C62.8157 34.4617 63.2757 34.0533 63.539 33.5214C63.8022 32.9896 63.8481 32.3762 63.6668 31.8111C63.4855 31.2461 63.0914 30.7738 62.5679 30.4944C62.0444 30.215 61.4326 30.1504 60.8623 30.3143L53.688 32.4033C53.5319 32.4481 53.3656 32.4425 53.2128 32.3872C53.0601 32.3318 52.9288 32.2296 52.8376 32.0952L49.1958 26.7787C48.6808 26.0255 47.9561 25.4401 47.1114 25.0949L38.4567 21.5517C37.7865 21.2793 37.0624 21.1653 36.3409 21.2188C35.6194 21.2722 34.92 21.4916 34.2972 21.8598L25.1741 27.2656C24.6997 27.5467 24.3134 27.9549 24.0588 28.4441L19.8731 36.4949C19.6006 37.0068 19.5411 37.6055 19.7077 38.1609C19.8742 38.7164 20.2534 39.1836 20.7626 39.461C21.2719 39.7383 21.87 39.8034 22.427 39.642C22.984 39.4807 23.4547 39.1059 23.7368 38.5993L27.0459 32.7899C27.1278 32.6464 27.2536 32.533 27.4049 32.4664L32.7567 30.1079C32.854 30.0635 32.9594 30.0399 33.0663 30.0385Z" fill="#323C6B"/>
<path d="M46.9112 20.516C44.6017 20.5145 42.3855 19.605 40.7407 17.9837C39.0959 16.3624 38.1546 14.1595 38.1199 11.8502C38.0852 9.541 38.9598 7.31072 40.5551 5.64074C42.1504 3.97076 44.3383 2.99501 46.6467 2.92408C48.9551 2.85315 51.1988 3.69273 52.8936 5.26162C54.5884 6.83051 55.5984 9.00289 55.7055 11.3099C55.8126 13.6169 55.0083 15.8735 53.4662 17.5927C51.9241 19.3119 49.7678 20.3558 47.4627 20.499C47.2779 20.5103 47.094 20.516 46.9112 20.516ZM46.4183 3.72409L46.466 4.49436C45.0346 4.58346 43.6618 5.09511 42.5213 5.96457C41.3807 6.83404 40.5236 8.02226 40.0585 9.37891C39.5934 10.7356 39.5411 12.1997 39.9082 13.5861C40.2754 14.9724 41.0455 16.2188 42.1211 17.1674C43.1967 18.116 44.5295 18.7243 45.9509 18.9153C47.3723 19.1063 48.8184 18.8715 50.1063 18.2404C51.3942 17.6094 52.466 16.6106 53.1861 15.3703C53.9062 14.13 54.2423 12.704 54.1518 11.2727C54.098 10.321 53.8557 9.38942 53.4392 8.53201C53.0226 7.67459 52.4399 6.90841 51.725 6.27788C51.0101 5.64735 50.1771 5.16502 49.2743 4.85887C48.3716 4.55271 47.417 4.42881 46.466 4.49436L46.4183 3.72409Z" fill="#323C6B"/>
<path d="M69.7097 113.228H54.979C54.7747 113.228 54.5788 113.147 54.4343 113.002C54.2899 112.858 54.2087 112.662 54.2087 112.458C54.2087 112.253 54.2899 112.058 54.4343 111.913C54.5788 111.769 54.7747 111.688 54.979 111.688H69.7097C69.9139 111.688 70.1099 111.769 70.2543 111.913C70.3988 112.058 70.4799 112.253 70.4799 112.458C70.4799 112.662 70.3988 112.858 70.2543 113.002C70.1099 113.147 69.9139 113.228 69.7097 113.228Z" fill="#323C6B"/>
<path d="M51.9934 113.228H50.5977C50.3934 113.228 50.1975 113.147 50.053 113.002C49.9085 112.858 49.8274 112.662 49.8274 112.458C49.8274 112.253 49.9085 112.058 50.053 111.913C50.1975 111.769 50.3934 111.688 50.5977 111.688H51.9934C52.1977 111.688 52.3936 111.769 52.5381 111.913C52.6825 112.058 52.7637 112.253 52.7637 112.458C52.7637 112.662 52.6825 112.858 52.5381 113.002C52.3936 113.147 52.1977 113.228 51.9934 113.228Z" fill="#323C6B"/>
<path d="M82.0338 45.0777H80.5903C80.386 45.0777 80.1901 44.9965 80.0457 44.852C79.9012 44.7076 79.8201 44.5117 79.8201 44.3074C79.8201 44.1031 79.9012 43.9072 80.0457 43.7627C80.1901 43.6183 80.386 43.5371 80.5903 43.5371H82.0354C82.2397 43.5371 82.4356 43.6183 82.58 43.7627C82.7245 43.9072 82.8056 44.1031 82.8056 44.3074C82.8056 44.5117 82.7245 44.7076 82.58 44.852C82.4356 44.9965 82.2397 45.0777 82.0354 45.0777H82.0338Z" fill="#323C6B"/>
<path d="M97.1511 45.0777H85.3074C85.1031 45.0777 84.9072 44.9965 84.7627 44.852C84.6183 44.7076 84.5371 44.5117 84.5371 44.3074C84.5371 44.1031 84.6183 43.9072 84.7627 43.7627C84.9072 43.6183 85.1031 43.5371 85.3074 43.5371H97.1511C97.3554 43.5371 97.5513 43.6183 97.6957 43.7627C97.8402 43.9072 97.9213 44.1031 97.9213 44.3074C97.9213 44.5117 97.8402 44.7076 97.6957 44.852C97.5513 44.9965 97.3554 45.0777 97.1511 45.0777Z" fill="#323C6B"/>
<path d="M22.395 102.147V103.029C22.3959 103.148 22.373 103.266 22.3279 103.376C22.2827 103.486 22.2161 103.586 22.132 103.671C22.0479 103.755 21.9479 103.821 21.8378 103.866C21.7277 103.912 21.6097 103.934 21.4907 103.934C21.3643 103.935 21.239 103.91 21.1229 103.86C21.0067 103.81 20.9022 103.736 20.816 103.644C20.6624 103.475 20.5758 103.256 20.5726 103.028V102.159C20.5667 102.036 20.5857 101.914 20.6283 101.798C20.671 101.683 20.7365 101.578 20.821 101.488C20.9054 101.399 21.007 101.328 21.1197 101.279C21.2323 101.23 21.3537 101.204 21.4766 101.203C21.5995 101.202 21.7212 101.226 21.8346 101.273C21.948 101.321 22.0507 101.39 22.1365 101.478C22.2223 101.566 22.2894 101.671 22.3338 101.785C22.3782 101.9 22.3991 102.022 22.395 102.145V102.147Z" fill="white"/>
<path d="M20.5866 98.7036L20.451 86.7937C20.4451 86.6709 20.4641 86.5483 20.5068 86.4331C20.5494 86.3178 20.615 86.2124 20.6994 86.1232C20.7838 86.0339 20.8854 85.9626 20.9981 85.9136C21.1107 85.8646 21.2322 85.8389 21.355 85.8379C21.4779 85.837 21.5997 85.8609 21.7131 85.9082C21.8265 85.9555 21.9291 86.0252 22.0149 86.1132C22.1007 86.2011 22.1678 86.3055 22.2122 86.4201C22.2567 86.5346 22.2775 86.657 22.2735 86.7798L22.409 98.6897C22.4099 98.8731 22.3555 99.0526 22.253 99.2047C22.1504 99.3568 22.0044 99.4745 21.8341 99.5425C21.6637 99.6105 21.4768 99.6256 21.2977 99.5859C21.1186 99.5461 20.9556 99.4534 20.83 99.3198C20.6785 99.1496 20.5923 98.9313 20.5866 98.7036Z" fill="white"/>
</svg>
