<svg width="114" height="114" viewBox="0 0 114 114" fill="none" xmlns="http://www.w3.org/2000/svg">
<path d="M58.8271 84.7283C53.7744 84.7283 48.8352 83.2301 44.634 80.4229C40.4329 77.6158 37.1585 73.626 35.2249 68.9579C33.2913 64.2898 32.7854 59.1532 33.7712 54.1976C34.7569 49.242 37.19 44.69 40.7628 41.1173C44.3355 37.5445 48.8875 35.1114 53.8431 34.1257C58.7987 33.1399 63.9353 33.6458 68.6034 35.5794C73.2715 37.513 77.2613 40.7874 80.0684 44.9885C82.8756 49.1897 84.3739 54.1289 84.3739 59.1816C84.3669 65.9549 81.6732 72.4488 76.8837 77.2382C72.0943 82.0277 65.6004 84.7214 58.8271 84.7283Z" fill="#FCD462"/>
<path d="M84.3753 59.1818C84.3765 62.7796 83.6151 66.3368 82.1414 69.6188C80.6676 72.9009 78.515 75.8334 75.8253 78.2229C79.6692 73.1697 81.4926 66.8658 80.94 60.5409C80.3873 54.216 77.4981 48.3238 72.8361 44.0139C68.1741 39.704 62.0736 37.2855 55.7249 37.2302C49.3761 37.1749 43.2344 39.4867 38.498 43.7148C41.736 39.4609 46.2268 36.33 51.338 34.7629C56.4492 33.1958 61.9231 33.2716 66.989 34.9795C72.0548 36.6874 76.4573 39.9414 79.5763 44.2832C82.6954 48.625 84.3738 53.8358 84.3753 59.1818Z" fill="#F7BE56"/>
<path d="M58.8271 78.1826C55.0694 78.1826 51.396 77.0683 48.2716 74.9806C45.1471 72.8929 42.7119 69.9256 41.2739 66.4539C39.8359 62.9822 39.4596 59.162 40.1927 55.4765C40.9258 51.7909 42.7353 48.4055 45.3925 45.7484C48.0496 43.0913 51.435 41.2818 55.1205 40.5487C58.806 39.8156 62.6262 40.1918 66.0979 41.6299C69.5696 43.0679 72.5369 45.5031 74.6246 48.6275C76.7123 51.752 77.8266 55.4253 77.8266 59.1831C77.8209 64.2203 75.8173 69.0496 72.2555 72.6114C68.6936 76.1733 63.8643 78.1769 58.8271 78.1826Z" fill="#FCD462"/>
<path d="M58.8271 78.9516C54.9171 78.9516 51.0948 77.7922 47.8437 75.6198C44.5925 73.4475 42.0586 70.3599 40.5623 66.7474C39.0659 63.135 38.6744 59.1599 39.4373 55.325C40.2001 51.49 42.083 47.9674 44.8478 45.2025C47.6127 42.4377 51.1353 40.5548 54.9703 39.792C58.8052 39.0292 62.7802 39.4207 66.3927 40.917C70.0051 42.4133 73.0928 44.9473 75.2651 48.1984C77.4374 51.4495 78.5969 55.2718 78.5969 59.1819C78.5908 64.4233 76.5059 69.4482 72.7997 73.1545C69.0935 76.8607 64.0685 78.9455 58.8271 78.9516ZM58.8271 40.9511C55.2218 40.9511 51.6974 42.0202 48.6997 44.0232C45.7019 46.0262 43.3655 48.8731 41.9857 52.204C40.6059 55.5348 40.2448 59.2 40.9481 62.7361C41.6513 66.2722 43.3873 69.5203 45.9366 72.0698C48.4858 74.6193 51.7338 76.3555 55.2699 77.0591C58.8059 77.7626 62.4711 77.4019 65.8021 76.0224C69.1331 74.6429 71.9802 72.3066 73.9834 69.3091C75.9867 66.3115 77.056 62.7872 77.0564 59.1819C77.0511 54.3487 75.1288 49.7149 71.7114 46.2972C68.2939 42.8794 63.6603 40.9568 58.8271 40.9511Z" fill="#323C6B"/>
<path d="M58.8271 90.8911C52.5995 90.8984 46.5079 89.0696 41.3141 85.6335C36.1202 82.1974 32.0546 77.3064 29.6255 71.5721C27.1963 65.8378 26.5116 59.5146 27.6567 53.3932C28.8019 47.2718 31.7262 41.6239 36.0641 37.1555L23.9677 22.1953C18.8005 27.0628 14.7102 32.9587 11.9603 39.5032C9.21034 46.0477 7.86181 53.0957 8.00155 60.1931C8.14129 67.2905 9.76619 74.2799 12.7716 80.7111C15.777 87.1423 20.0962 92.8726 25.451 97.5329C30.8058 102.193 37.0775 105.68 43.8619 107.769C50.6464 109.858 57.7932 110.503 64.8419 109.661C71.8907 108.82 78.6851 106.512 84.7874 102.885C90.8897 99.258 96.1646 94.393 100.272 88.6034L83.7777 78.6823C80.8214 82.481 77.0373 85.5552 72.7137 87.6709C68.39 89.7865 63.6406 90.8879 58.8271 90.8911Z" fill="#BBBBCD"/>
<path d="M58.827 110.79C45.1444 110.775 32.0267 105.332 22.3516 95.6574C12.6766 85.9823 7.23436 72.8646 7.21887 59.1821C7.19244 52.1439 8.61961 45.1762 11.411 38.7152C14.2023 32.2542 18.2978 26.4392 23.4408 21.6345C23.5993 21.4922 23.8072 21.4176 24.02 21.4265C24.1259 21.4338 24.2291 21.4628 24.3232 21.5119C24.4173 21.5609 24.5003 21.6289 24.5669 21.7115L36.6648 36.664C36.7831 36.8101 36.8438 36.9945 36.8356 37.1824C36.8274 37.3702 36.7507 37.5486 36.6201 37.6838C33.6954 40.6973 31.4155 44.2754 29.9198 48.1994C28.424 52.1234 27.7438 56.3111 27.9205 60.5069C28.0972 64.7026 29.1272 68.8183 30.9476 72.6026C32.768 76.387 35.3406 79.7606 38.5084 82.5176C41.6761 85.2745 45.3725 87.3569 49.3719 88.6376C53.3713 89.9183 57.5898 90.3704 61.7697 89.9663C65.9497 89.5623 70.0034 88.3105 73.6835 86.2875C77.3635 84.2645 80.5926 81.5127 83.1737 78.2C83.2894 78.052 83.4551 77.9514 83.6398 77.917C83.8245 77.8827 84.0154 77.9171 84.1766 78.0136L100.671 87.9332C100.762 87.9878 100.841 88.0607 100.902 88.1472C100.964 88.2337 101.006 88.3319 101.028 88.4358C101.05 88.5396 101.05 88.6468 101.028 88.7507C101.007 88.8545 100.964 88.9528 100.902 89.0393C96.1277 95.7532 89.8186 101.23 82.5002 105.013C75.1817 108.796 67.0655 110.777 58.827 110.79ZM23.8968 23.3306C19.0856 27.9763 15.2643 33.5475 12.6628 39.7088C10.0614 45.8701 8.7336 52.4941 8.75941 59.1821C8.7577 69.731 12.0886 80.0109 18.2766 88.5543C24.4646 97.0976 33.1933 103.468 43.2169 106.755C53.2405 110.043 64.0465 110.08 74.0923 106.861C84.1382 103.642 92.9104 97.3321 99.1568 88.8313L83.9594 79.6897C81.2135 83.0657 77.8165 85.8548 73.9706 87.8911C70.1248 89.9273 65.9085 91.169 61.5729 91.5423C57.2373 91.9156 52.8708 91.4129 48.7335 90.0641C44.5961 88.7152 40.7724 86.5479 37.4899 83.6909C34.2073 80.834 31.5331 77.3459 29.6263 73.4342C27.7195 69.5225 26.6191 65.2672 26.3906 60.9215C26.1622 56.5759 26.8103 52.2286 28.2964 48.1386C29.7825 44.0485 32.0762 40.2992 35.041 37.1138L23.8968 23.3306Z" fill="#323C6B"/>
<path d="M90.536 59.1809C90.5343 63.6312 89.5892 68.0307 87.763 72.0891L104.247 82.0055C108.667 73.2113 110.439 63.3226 109.348 53.5405C108.256 43.7584 104.348 34.5037 98.0969 26.9004L84.1843 40.2261C88.3033 45.6872 90.5328 52.3406 90.536 59.1809Z" fill="#FE7058"/>
<path d="M58.827 27.4703C66.1389 27.4657 73.2254 30.0005 78.8756 34.6415L92.7636 21.3405C84.2658 13.7136 73.4468 9.17132 62.0513 8.44632C50.6559 7.72131 39.3484 10.8558 29.9526 17.3443L42.0567 32.3168C47.0781 29.1526 52.8918 27.4724 58.827 27.4703Z" fill="#27CCBC"/>
<path d="M109.671 59.1825C109.673 67.112 107.815 74.9315 104.248 82.0133L102.199 80.7809C105.061 72.5472 105.759 63.7164 104.226 55.1354C102.694 46.5545 98.9831 38.511 93.4491 31.7763L84.3599 40.4804C84.3087 40.3947 84.2521 40.3124 84.1904 40.2339L98.1015 26.9082C105.598 35.991 109.69 47.4055 109.671 59.1825Z" fill="#EA6453"/>
<path d="M92.7712 21.3459L87.8877 26.0138C80.2448 19.244 70.7411 14.9315 60.6134 13.6373C50.4858 12.3432 40.2031 14.1274 31.1034 18.7578L29.948 17.3405C39.347 10.8531 50.657 7.72012 62.0543 8.44678C73.4517 9.17344 84.2722 13.7174 92.7712 21.3459Z" fill="#21B3A9"/>
<path d="M58.8271 72.6261C56.9425 72.624 55.1357 71.8745 53.8031 70.5419C52.4706 69.2093 51.721 67.4025 51.719 65.518C51.719 65.3137 51.8001 65.1178 51.9446 64.9733C52.0891 64.8289 52.285 64.7477 52.4893 64.7477C52.6936 64.7477 52.8895 64.8289 53.0339 64.9733C53.1784 65.1178 53.2595 65.3137 53.2595 65.518C53.2595 66.6191 53.5861 67.6956 54.1978 68.6111C54.8096 69.5267 55.6791 70.2403 56.6965 70.6617C57.7138 71.0831 58.8332 71.1934 59.9132 70.9785C60.9932 70.7637 61.9853 70.2335 62.7639 69.4548C63.5425 68.6762 64.0728 67.6842 64.2876 66.6042C64.5024 65.5242 64.3922 64.4047 63.9708 63.3874C63.5494 62.3701 62.8358 61.5005 61.9202 60.8888C61.0046 60.277 59.9282 59.9505 58.8271 59.9505C57.4213 59.9505 56.0472 59.5337 54.8783 58.7528C53.7095 57.9719 52.7984 56.8619 52.2604 55.5633C51.7223 54.2646 51.5813 52.8356 51.8554 51.4568C52.1294 50.0781 52.806 48.8116 53.7998 47.8174C54.7936 46.8232 56.0598 46.1459 57.4385 45.8713C58.8171 45.5967 60.2462 45.737 61.5451 46.2746C62.8439 46.8121 63.9543 47.7227 64.7357 48.8912C65.5171 50.0597 65.9345 51.4336 65.9351 52.8393C65.9351 53.0436 65.854 53.2396 65.7095 53.384C65.5651 53.5285 65.3691 53.6096 65.1648 53.6096C64.9606 53.6096 64.7646 53.5285 64.6202 53.384C64.4757 53.2396 64.3946 53.0436 64.3946 52.8393C64.3946 51.7382 64.068 50.6618 63.4563 49.7462C62.8445 48.8306 61.975 48.117 60.9577 47.6956C59.9403 47.2742 58.8209 47.164 57.7409 47.3788C56.6609 47.5936 55.6689 48.1239 54.8902 48.9025C54.1116 49.6812 53.5813 50.6732 53.3665 51.7532C53.1517 52.8332 53.2619 53.9526 53.6833 54.9699C54.1047 55.9873 54.8183 56.8568 55.7339 57.4686C56.6495 58.0803 57.7259 58.4069 58.8271 58.4069C60.7122 58.4069 62.5202 59.1557 63.8532 60.4888C65.1862 61.8218 65.9351 63.6297 65.9351 65.5149C65.9351 67.4001 65.1862 69.2081 63.8532 70.5411C62.5202 71.8741 60.7122 72.623 58.8271 72.623V72.6261Z" fill="#323C6B"/>
<path d="M58.8272 47.2763C58.6229 47.2763 58.4269 47.1951 58.2825 47.0507C58.138 46.9062 58.0569 46.7103 58.0569 46.506V44.5203C58.0569 44.316 58.138 44.1201 58.2825 43.9756C58.4269 43.8312 58.6229 43.75 58.8272 43.75C59.0314 43.75 59.2274 43.8312 59.3718 43.9756C59.5163 44.1201 59.5974 44.316 59.5974 44.5203V46.5137C59.5954 46.7167 59.5133 46.9106 59.3691 47.0534C59.2249 47.1962 59.0301 47.2763 58.8272 47.2763Z" fill="#323C6B"/>
<path d="M58.8272 74.6199C58.6229 74.6199 58.4269 74.5388 58.2825 74.3943C58.138 74.2499 58.0569 74.054 58.0569 73.8497V71.8562C58.0569 71.6519 58.138 71.456 58.2825 71.3115C58.4269 71.1671 58.6229 71.0859 58.8272 71.0859C59.0314 71.0859 59.2274 71.1671 59.3718 71.3115C59.5163 71.456 59.5974 71.6519 59.5974 71.8562V73.8497C59.5974 74.054 59.5163 74.2499 59.3718 74.3943C59.2274 74.5388 59.0314 74.6199 58.8272 74.6199Z" fill="#323C6B"/>
<path d="M18.8993 98.367C18.7958 98.367 18.6933 98.3461 18.598 98.3056C18.5027 98.2651 18.4166 98.2058 18.3447 98.1313C13.8118 93.4333 10.1305 87.9828 7.46543 82.0234C7.4209 81.9305 7.39542 81.8297 7.39052 81.7269C7.38562 81.624 7.40139 81.5212 7.4369 81.4246C7.4724 81.3279 7.52693 81.2394 7.59725 81.1641C7.66757 81.0889 7.75225 81.0286 7.8463 80.9867C7.94034 80.9447 8.04184 80.9221 8.14478 80.9201C8.24773 80.918 8.35004 80.9367 8.44566 80.9749C8.54128 81.0131 8.62827 81.0701 8.70149 81.1425C8.77471 81.2148 8.83267 81.3012 8.87195 81.3964C11.4649 87.1923 15.0461 92.4932 19.4555 97.0621C19.5604 97.1709 19.6309 97.3082 19.6584 97.4568C19.6858 97.6055 19.6689 97.7589 19.6098 97.898C19.5507 98.0371 19.4519 98.1557 19.3259 98.2391C19.1998 98.3225 19.052 98.367 18.9009 98.367H18.8993Z" fill="#323C6B"/>
<path d="M6.16215 77.2833C6.0001 77.2834 5.84214 77.2324 5.71076 77.1375C5.57939 77.0426 5.48127 76.9088 5.43039 76.7549C5.2065 76.0781 4.99544 75.3946 4.79723 74.7044C4.74064 74.5081 4.76436 74.2974 4.86316 74.1185C4.96197 73.9397 5.12777 73.8074 5.32409 73.7508C5.52041 73.6943 5.73117 73.718 5.91001 73.8168C6.08884 73.9156 6.2211 74.0814 6.27769 74.2777C6.47077 74.9473 6.67617 75.6118 6.8939 76.2712C6.95769 76.465 6.94193 76.6763 6.85008 76.8586C6.75823 77.0408 6.59779 77.1792 6.40401 77.2432C6.32611 77.2697 6.24441 77.2832 6.16215 77.2833Z" fill="#323C6B"/>
<path d="M52.4738 4.88374C52.3726 4.88941 52.2714 4.87509 52.1757 4.84161C52.0801 4.80814 51.992 4.75616 51.9165 4.68863C51.764 4.55227 51.6718 4.36089 51.6604 4.15661C51.6489 3.95232 51.7191 3.75185 51.8555 3.59931C51.9919 3.44677 52.1832 3.35464 52.3875 3.3432L52.9144 3.28004C53.4859 3.21225 54.0575 3.14447 54.6321 3.10288C54.7339 3.09339 54.8365 3.1046 54.9339 3.13583C55.0312 3.16705 55.1213 3.21765 55.1985 3.28457C55.2758 3.35149 55.3388 3.43336 55.3836 3.52524C55.4284 3.61713 55.4542 3.71713 55.4594 3.81923C55.4747 4.02289 55.4084 4.22429 55.2752 4.37914C55.1421 4.53398 54.9528 4.6296 54.7492 4.64496C54.1961 4.68655 53.6477 4.75125 53.0977 4.81596L52.5647 4.87912C52.5345 4.88266 52.5042 4.8842 52.4738 4.88374Z" fill="#323C6B"/>
<path d="M75.1013 6.94826C75.0251 6.9483 74.9493 6.93687 74.8764 6.91437C69.7889 5.35094 64.5005 4.53771 59.1783 4.50034C58.974 4.50034 58.7781 4.41919 58.6337 4.27474C58.4892 4.13028 58.408 3.93436 58.408 3.73007C58.4032 3.62764 58.4198 3.52532 58.4568 3.42968C58.4938 3.33404 58.5504 3.24718 58.6229 3.17466C58.6954 3.10215 58.7823 3.04558 58.8779 3.00858C58.9736 2.97158 59.0759 2.95497 59.1783 2.9598C64.6551 2.99641 70.0972 3.8325 75.3324 5.44161C75.5087 5.49571 75.6597 5.61125 75.7581 5.76725C75.8564 5.92325 75.8955 6.10934 75.8683 6.29172C75.841 6.4741 75.7493 6.64066 75.6097 6.76114C75.4701 6.88161 75.2919 6.94801 75.1075 6.94826H75.1013Z" fill="#323C6B"/>
<path d="M104.25 82.776C104.11 82.7763 103.972 82.7385 103.852 82.6666L87.3685 72.7502C87.2068 72.6535 87.0861 72.5008 87.0293 72.3211C86.9725 72.1414 86.9836 71.9471 87.0604 71.775C89.3211 66.7569 90.19 61.223 89.5761 55.7535C88.9622 50.284 86.888 45.0805 83.5711 40.6884C83.4581 40.5379 83.4042 40.3511 83.4196 40.1635C83.4349 39.9759 83.5184 39.8004 83.6543 39.6701L97.5684 26.3445C97.6454 26.2719 97.7363 26.2156 97.8356 26.1791C97.9348 26.1426 98.0405 26.1265 98.1461 26.1319C98.2518 26.1382 98.355 26.1662 98.4494 26.2142C98.5438 26.2621 98.6272 26.329 98.6946 26.4107C106.279 35.6486 110.427 47.2289 110.435 59.1811C110.454 67.2301 108.571 75.1696 104.938 82.3524C104.874 82.4799 104.776 82.587 104.654 82.6618C104.533 82.7366 104.393 82.7761 104.25 82.776ZM88.735 71.7781L103.926 80.915C107.212 74.1425 108.91 66.71 108.891 59.1826C108.885 47.873 105.057 36.8974 98.0275 28.0375L85.2071 40.3156C88.4547 44.8122 90.4858 50.0713 91.1039 55.5834C91.722 61.0956 90.906 66.6739 88.735 71.7781Z" fill="#323C6B"/>
<path d="M95.0128 69.5009C94.8559 69.5006 94.7012 69.4636 94.5613 69.3927C94.4213 69.3218 94.3 69.2191 94.2069 69.0928C94.1139 68.9665 94.0517 68.8201 94.0256 68.6655C93.9994 68.5108 94.0098 68.3521 94.0561 68.2022C94.9648 65.2818 95.427 62.2409 95.4272 59.1824C95.4272 58.5661 95.4087 57.9535 95.3717 57.3445C95.3558 57.0789 95.446 56.8179 95.6225 56.6188C95.799 56.4198 96.0474 56.299 96.313 56.2831C96.5786 56.2671 96.8396 56.3573 97.0386 56.5339C97.2377 56.7104 97.3585 56.9587 97.3744 57.2243C97.4124 57.8724 97.4319 58.5251 97.4329 59.1824C97.4329 62.4425 96.94 65.684 95.971 68.7969C95.9074 69.0012 95.7801 69.1798 95.6077 69.3065C95.4352 69.4332 95.2267 69.5013 95.0128 69.5009Z" fill="white"/>
<path d="M96.0727 54.8747C95.8441 54.8747 95.6224 54.7964 95.4445 54.6529C95.2665 54.5094 95.143 54.3094 95.0945 54.086C95.0164 53.7255 94.9322 53.366 94.8418 53.0076C94.8095 52.8801 94.8025 52.7476 94.8214 52.6174C94.8403 52.4873 94.8846 52.3621 94.9518 52.2491C95.0191 52.1361 95.1079 52.0375 95.2132 51.9588C95.3186 51.8801 95.4384 51.8229 95.5659 51.7906C95.6933 51.7582 95.8259 51.7513 95.9561 51.7701C96.0862 51.789 96.2114 51.8333 96.3244 51.9006C96.4374 51.9678 96.536 52.0566 96.6147 52.162C96.6934 52.2673 96.7506 52.3872 96.7829 52.5146C96.8795 52.8926 96.9693 53.2731 97.0525 53.6562C97.0803 53.785 97.0825 53.918 97.0588 54.0476C97.0351 54.1772 96.9861 54.3008 96.9145 54.4115C96.843 54.5221 96.7503 54.6175 96.6418 54.6922C96.5333 54.767 96.4111 54.8196 96.2822 54.847C96.2136 54.8637 96.1434 54.873 96.0727 54.8747Z" fill="white"/>
<path d="M78.8757 35.4137C78.6977 35.4138 78.5252 35.3523 78.3874 35.2396C73.3964 31.1379 67.2411 28.7112 60.7939 28.3033C54.3467 27.8955 47.9346 29.5272 42.4666 32.9673C42.3071 33.0672 42.1166 33.1053 41.931 33.0743C41.7454 33.0434 41.5775 32.9456 41.4591 32.7994L29.3535 17.8268C29.2864 17.7448 29.237 17.6498 29.2083 17.5478C29.1795 17.4458 29.1722 17.339 29.1866 17.234C29.2011 17.1291 29.2371 17.0282 29.2923 16.9378C29.3475 16.8473 29.4208 16.7692 29.5076 16.7084C39.0459 10.1199 50.5256 6.93672 62.0948 7.67236C73.6641 8.40799 84.6482 13.0196 93.2752 20.7631C93.3541 20.8339 93.4175 20.9203 93.4614 21.0167C93.5054 21.1132 93.529 21.2177 93.5308 21.3237C93.5325 21.4297 93.5123 21.5349 93.4715 21.6328C93.4307 21.7306 93.3702 21.819 93.2936 21.8923L79.4057 35.1934C79.264 35.3323 79.0742 35.4112 78.8757 35.4137ZM58.8271 26.7019C66.0809 26.7116 73.1233 29.1464 78.8341 33.6189L91.6299 21.3639C83.352 14.1787 72.9439 9.91025 62.0047 9.21447C51.0655 8.51868 40.2004 11.434 31.0789 17.5126L42.2324 31.3081C47.2452 28.2993 52.9807 26.7073 58.8271 26.7019Z" fill="#323C6B"/>
<path d="M58.8271 85.4974C53.6221 85.4974 48.5339 83.9539 44.2061 81.0622C39.8783 78.1704 36.5052 74.0603 34.5133 69.2514C32.5214 64.4426 32.0002 59.1512 33.0157 54.0461C34.0311 48.9411 36.5376 44.2519 40.2181 40.5714C43.8986 36.8909 48.5879 34.3844 53.6929 33.369C58.7979 32.3535 64.0894 32.8747 68.8982 34.8666C73.707 36.8584 77.8172 40.2316 80.7089 44.5594C83.6007 48.8872 85.1441 53.9753 85.1441 59.1803C85.1372 66.1579 82.3623 72.8478 77.4284 77.7817C72.4945 82.7156 65.8047 85.4905 58.8271 85.4974ZM58.8271 34.4023C53.9268 34.4023 49.1366 35.8554 45.0621 38.5778C40.9877 41.3002 37.812 45.1697 35.9367 49.6969C34.0614 54.2241 33.5706 59.2058 34.5265 64.0119C35.4824 68.818 37.842 73.2328 41.3069 76.6979C44.7718 80.163 49.1864 82.5229 53.9925 83.4791C58.7985 84.4352 63.7802 83.9448 68.3076 82.0698C72.8349 80.1947 76.7046 77.0193 79.4272 72.945C82.1499 68.8708 83.6033 64.0806 83.6036 59.1803C83.5971 52.6111 80.9846 46.3127 76.3396 41.6674C71.6946 37.022 65.3964 34.4092 58.8271 34.4023Z" fill="#323C6B"/>
</svg>
